%TF.GenerationSoftware,KiCad,Pcbnew,(6.0.2-0)*%
%TF.CreationDate,2022-03-31T16:46:24+02:00*%
%TF.ProjectId,Schield,53636869-656c-4642-9e6b-696361645f70,rev?*%
%TF.SameCoordinates,Original*%
%TF.FileFunction,Copper,L2,Bot*%
%TF.FilePolarity,Positive*%
%FSLAX46Y46*%
G04 Gerber Fmt 4.6, Leading zero omitted, Abs format (unit mm)*
G04 Created by KiCad (PCBNEW (6.0.2-0)) date 2022-03-31 16:46:24*
%MOMM*%
%LPD*%
G01*
G04 APERTURE LIST*
%ADD10C,0.300000*%
%TA.AperFunction,NonConductor*%
%ADD11C,0.300000*%
%TD*%
%TA.AperFunction,ComponentPad*%
%ADD12O,2.000000X2.500000*%
%TD*%
%TA.AperFunction,ComponentPad*%
%ADD13C,4.064000*%
%TD*%
%TA.AperFunction,ComponentPad*%
%ADD14C,2.540000*%
%TD*%
%TA.AperFunction,ComponentPad*%
%ADD15O,2.540000X2.540000*%
%TD*%
%TA.AperFunction,ComponentPad*%
%ADD16O,2.000000X2.540000*%
%TD*%
%TA.AperFunction,ComponentPad*%
%ADD17O,2.540000X2.000000*%
%TD*%
%TA.AperFunction,ComponentPad*%
%ADD18R,2.500000X2.000000*%
%TD*%
%TA.AperFunction,Conductor*%
%ADD19C,0.600000*%
%TD*%
G04 APERTURE END LIST*
D10*
D11*
X116319428Y-88329285D02*
X116319428Y-89043571D01*
X117819428Y-89043571D01*
X116319428Y-87829285D02*
X117819428Y-87829285D01*
X116748000Y-87329285D01*
X117819428Y-86829285D01*
X116319428Y-86829285D01*
X117105142Y-84972142D02*
X117105142Y-84472142D01*
X116319428Y-84257857D02*
X116319428Y-84972142D01*
X117819428Y-84972142D01*
X117819428Y-84257857D01*
X117819428Y-83829285D02*
X117819428Y-82972142D01*
X116319428Y-83400714D02*
X117819428Y-83400714D01*
X117819428Y-81543571D02*
X117819428Y-80686428D01*
X116319428Y-81115000D02*
X117819428Y-81115000D01*
X116319428Y-79472142D02*
X116319428Y-80186428D01*
X117819428Y-80186428D01*
D12*
%TO.P,P1,1,Pin_1*%
%TO.N,unconnected-(P1-Pad1)*%
X138938000Y-123825000D03*
%TO.P,P1,2,Pin_2*%
%TO.N,/IOREF*%
X141478000Y-123825000D03*
%TO.P,P1,3,Pin_3*%
%TO.N,/Reset*%
X144018000Y-123825000D03*
%TO.P,P1,4,Pin_4*%
%TO.N,unconnected-(P1-Pad4)*%
X146558000Y-123825000D03*
%TO.P,P1,5,Pin_5*%
%TO.N,+5V*%
X149098000Y-123825000D03*
%TO.P,P1,6,Pin_6*%
%TO.N,GND*%
X151638000Y-123825000D03*
%TO.P,P1,7,Pin_7*%
X154178000Y-123825000D03*
%TO.P,P1,8,Pin_8*%
%TO.N,/Vin*%
X156718000Y-123825000D03*
%TD*%
%TO.P,P2,1,Pin_1*%
%TO.N,ADC*%
X161798000Y-123825000D03*
%TO.P,P2,2,Pin_2*%
%TO.N,/A1*%
X164338000Y-123825000D03*
%TO.P,P2,3,Pin_3*%
%TO.N,/A2*%
X166878000Y-123825000D03*
%TO.P,P2,4,Pin_4*%
%TO.N,/A3*%
X169418000Y-123825000D03*
%TO.P,P2,5,Pin_5*%
%TO.N,SDA*%
X171958000Y-123825000D03*
%TO.P,P2,6,Pin_6*%
%TO.N,SCK*%
X174498000Y-123825000D03*
%TD*%
%TO.P,P3,1,Pin_1*%
%TO.N,SCK*%
X129794000Y-75565000D03*
%TO.P,P3,2,Pin_2*%
%TO.N,SDA*%
X132334000Y-75565000D03*
%TO.P,P3,3,Pin_3*%
%TO.N,/AREF*%
X134874000Y-75565000D03*
%TO.P,P3,4,Pin_4*%
%TO.N,GND*%
X137414000Y-75565000D03*
%TO.P,P3,5,Pin_5*%
%TO.N,/13(SCK)*%
X139954000Y-75565000D03*
%TO.P,P3,6,Pin_6*%
%TO.N,/12(MISO)*%
X142494000Y-75565000D03*
%TO.P,P3,7,Pin_7*%
%TO.N,TX*%
X145034000Y-75565000D03*
%TO.P,P3,8,Pin_8*%
%TO.N,RX*%
X147574000Y-75565000D03*
%TO.P,P3,9,Pin_9*%
%TO.N,/9(\u002A\u002A)*%
X150114000Y-75565000D03*
%TO.P,P3,10,Pin_10*%
%TO.N,/8*%
X152654000Y-75565000D03*
%TD*%
%TO.P,P4,1,Pin_1*%
%TO.N,/7*%
X156718000Y-75565000D03*
%TO.P,P4,2,Pin_2*%
%TO.N,/6(\u002A\u002A)*%
X159258000Y-75565000D03*
%TO.P,P4,3,Pin_3*%
%TO.N,/5(\u002A\u002A)*%
X161798000Y-75565000D03*
%TO.P,P4,4,Pin_4*%
%TO.N,SWITCH*%
X164338000Y-75565000D03*
%TO.P,P4,5,Pin_5*%
%TO.N,DATA*%
X166878000Y-75565000D03*
%TO.P,P4,6,Pin_6*%
%TO.N,CLK*%
X169418000Y-75565000D03*
%TO.P,P4,7,Pin_7*%
%TO.N,/1(Tx)*%
X171958000Y-75565000D03*
%TO.P,P4,8,Pin_8*%
%TO.N,/0(Rx)*%
X174498000Y-75565000D03*
%TD*%
D13*
%TO.P,P5,1,Pin_1*%
%TO.N,unconnected-(P5-Pad1)*%
X124968000Y-123825000D03*
%TD*%
%TO.P,P6,1,Pin_1*%
%TO.N,unconnected-(P6-Pad1)*%
X177038000Y-118745000D03*
%TD*%
%TO.P,P7,1,Pin_1*%
%TO.N,unconnected-(P7-Pad1)*%
X126238000Y-75565000D03*
%TD*%
%TO.P,P8,1,Pin_1*%
%TO.N,unconnected-(P8-Pad1)*%
X177038000Y-90805000D03*
%TD*%
D14*
%TO.P,R5,1*%
%TO.N,Net-(C3-Pad1)*%
X142188000Y-101365000D03*
D15*
%TO.P,R5,2*%
%TO.N,ADC*%
X149808000Y-101365000D03*
%TD*%
D14*
%TO.P,R3,1*%
%TO.N,Net-(C1-Pad1)*%
X119188000Y-111365000D03*
D15*
%TO.P,R3,2*%
%TO.N,GND*%
X126808000Y-111365000D03*
%TD*%
D14*
%TO.P,C4,1*%
%TO.N,ADC*%
X155998000Y-101365000D03*
%TO.P,C4,2*%
%TO.N,GND*%
X155998000Y-106365000D03*
%TD*%
%TO.P,R2,1*%
%TO.N,Net-(R1-Pad2)*%
X124808000Y-98365000D03*
D15*
%TO.P,R2,2*%
%TO.N,Net-(C1-Pad1)*%
X117188000Y-98365000D03*
%TD*%
D16*
%TO.P,U2,1,No_name*%
%TO.N,unconnected-(U2-Pad1)*%
X155348000Y-83365000D03*
%TO.P,U2,2,VCC*%
%TO.N,+5V*%
X152808000Y-83365000D03*
%TO.P,U2,3,GND*%
%TO.N,GND*%
X150268000Y-83365000D03*
%TO.P,U2,4,TX_to_RX*%
%TO.N,RX*%
X147728000Y-83365000D03*
%TO.P,U2,5,RX_to_TX*%
%TO.N,TX*%
X145188000Y-83365000D03*
%TO.P,U2,6,No_name2*%
%TO.N,unconnected-(U2-Pad6)*%
X142648000Y-83365000D03*
%TD*%
D17*
%TO.P,U1,1,GND*%
%TO.N,GND*%
X171998000Y-111175000D03*
%TO.P,U1,2,VCC*%
%TO.N,+5V*%
X171998000Y-108635000D03*
%TO.P,U1,3,SCL*%
%TO.N,SCK*%
X171998000Y-106095000D03*
%TO.P,U1,4,SDA*%
%TO.N,SDA*%
X171998000Y-103555000D03*
%TD*%
D14*
%TO.P,R1,1*%
%TO.N,+5V*%
X136808000Y-91365000D03*
D15*
%TO.P,R1,2*%
%TO.N,Net-(R1-Pad2)*%
X129188000Y-91365000D03*
%TD*%
D14*
%TO.P,C3,1*%
%TO.N,Net-(C3-Pad1)*%
X136998000Y-111365000D03*
%TO.P,C3,2*%
%TO.N,Net-(C3-Pad2)*%
X131998000Y-111365000D03*
%TD*%
%TO.P,R6,1*%
%TO.N,Net-(C3-Pad2)*%
X134808000Y-117365000D03*
D15*
%TO.P,R6,2*%
%TO.N,GND*%
X127188000Y-117365000D03*
%TD*%
D14*
%TO.P,C1,1*%
%TO.N,Net-(C1-Pad1)*%
X119498000Y-106365000D03*
%TO.P,C1,2*%
%TO.N,GND*%
X124498000Y-106365000D03*
%TD*%
D16*
%TO.P,U4,1,CLK*%
%TO.N,CLK*%
X174078000Y-83365000D03*
%TO.P,U4,2,DATA*%
%TO.N,DATA*%
X171538000Y-83365000D03*
%TO.P,U4,3,SWITCH*%
%TO.N,SWITCH*%
X168998000Y-83365000D03*
%TO.P,U4,4,VCC*%
%TO.N,+5V*%
X166458000Y-83365000D03*
%TO.P,U4,5,GND*%
%TO.N,GND*%
X163918000Y-83365000D03*
%TD*%
D18*
%TO.P,U3,1,NC_1*%
%TO.N,unconnected-(U3-Pad1)*%
X130238000Y-97555000D03*
D17*
%TO.P,U3,2,-IN*%
%TO.N,Net-(C3-Pad2)*%
X130238000Y-100095000D03*
%TO.P,U3,3,+IN*%
%TO.N,Net-(C1-Pad1)*%
X130238000Y-102635000D03*
%TO.P,U3,4,V-*%
%TO.N,GND*%
X130238000Y-105175000D03*
%TO.P,U3,5,Clock*%
%TO.N,unconnected-(U3-Pad5)*%
X137758000Y-105175000D03*
%TO.P,U3,6,OUT*%
%TO.N,Net-(C3-Pad1)*%
X137758000Y-102635000D03*
%TO.P,U3,7,V+*%
%TO.N,+5V*%
X137758000Y-100095000D03*
%TO.P,U3,8,NC_2*%
%TO.N,unconnected-(U3-Pad8)*%
X137758000Y-97555000D03*
%TD*%
D14*
%TO.P,C2,1*%
%TO.N,+5V*%
X148998000Y-114365000D03*
%TO.P,C2,2*%
%TO.N,GND*%
X153998000Y-114365000D03*
%TD*%
%TO.P,R4,1*%
%TO.N,Net-(C3-Pad1)*%
X133808000Y-85365000D03*
D15*
%TO.P,R4,2*%
%TO.N,Net-(C3-Pad2)*%
X126188000Y-85365000D03*
%TD*%
D19*
%TO.N,Net-(C3-Pad2)*%
X132998000Y-90378949D02*
X132998000Y-101365000D01*
X132998000Y-101365000D02*
X132998000Y-110365000D01*
X130238000Y-100095000D02*
X131728000Y-100095000D01*
X131728000Y-100095000D02*
X132998000Y-101365000D01*
X126188000Y-85365000D02*
X127984051Y-85365000D01*
X127984051Y-85365000D02*
X132998000Y-90378949D01*
X132998000Y-110365000D02*
X131998000Y-111365000D01*
%TO.N,+5V*%
X168998000Y-114365000D02*
X168998000Y-110365000D01*
X134528489Y-99895489D02*
X134528489Y-100895489D01*
X148998000Y-114365000D02*
X148998000Y-123725000D01*
X134528489Y-89577906D02*
X131338489Y-86387906D01*
X169998000Y-115365000D02*
X168998000Y-114365000D01*
X152808000Y-84695000D02*
X152808000Y-83365000D01*
X134528489Y-93644511D02*
X134528489Y-99895489D01*
X136428000Y-100095000D02*
X134528489Y-101994511D01*
X146998000Y-90365000D02*
X147138000Y-90365000D01*
X176998000Y-96365000D02*
X176998000Y-113365000D01*
X147138000Y-90365000D02*
X152808000Y-84695000D01*
X148998000Y-114365000D02*
X136505583Y-114365000D01*
X142998000Y-90365000D02*
X144998000Y-90365000D01*
X170728000Y-108635000D02*
X171998000Y-108635000D01*
X166458000Y-83365000D02*
X166458000Y-84695000D01*
X166458000Y-84695000D02*
X160788000Y-90365000D01*
X134528489Y-100895489D02*
X134528489Y-101994511D01*
X166458000Y-85825000D02*
X176998000Y-96365000D01*
X134528489Y-93644511D02*
X134528489Y-89577906D01*
X132998000Y-82365000D02*
X134998000Y-82365000D01*
X176998000Y-113365000D02*
X174998000Y-115365000D01*
X144998000Y-90365000D02*
X146998000Y-90365000D01*
X136808000Y-91365000D02*
X134528489Y-93644511D01*
X137758000Y-100095000D02*
X136428000Y-100095000D01*
X166458000Y-83365000D02*
X166458000Y-85825000D01*
X134998000Y-82365000D02*
X142998000Y-90365000D01*
X134528489Y-112387906D02*
X134528489Y-99895489D01*
X136505583Y-114365000D02*
X134528489Y-112387906D01*
X160788000Y-90365000D02*
X146998000Y-90365000D01*
X168998000Y-110365000D02*
X170728000Y-108635000D01*
X131338489Y-86387906D02*
X131338489Y-84024511D01*
X174998000Y-115365000D02*
X169998000Y-115365000D01*
X131338489Y-84024511D02*
X132998000Y-82365000D01*
X148998000Y-123725000D02*
X149098000Y-123825000D01*
%TO.N,Net-(C1-Pad1)*%
X123228000Y-102635000D02*
X119498000Y-106365000D01*
X117188000Y-104055000D02*
X119498000Y-106365000D01*
X119188000Y-111365000D02*
X119188000Y-106675000D01*
X119188000Y-106675000D02*
X119498000Y-106365000D01*
X117188000Y-98365000D02*
X117188000Y-104055000D01*
X130238000Y-102635000D02*
X123228000Y-102635000D01*
%TO.N,Net-(C3-Pad1)*%
X142188000Y-101365000D02*
X140918000Y-102635000D01*
X135808000Y-85365000D02*
X142188000Y-91745000D01*
X133808000Y-85365000D02*
X135808000Y-85365000D01*
X142188000Y-106175000D02*
X142188000Y-101365000D01*
X142188000Y-91745000D02*
X142188000Y-101365000D01*
X140918000Y-102635000D02*
X137758000Y-102635000D01*
X136998000Y-111365000D02*
X142188000Y-106175000D01*
%TO.N,Net-(C3-Pad2)*%
X134808000Y-117365000D02*
X131998000Y-114555000D01*
X131998000Y-114555000D02*
X131998000Y-111365000D01*
%TO.N,ADC*%
X155998000Y-101365000D02*
X161798000Y-107165000D01*
X161798000Y-107165000D02*
X161798000Y-123825000D01*
X155998000Y-101365000D02*
X149808000Y-101365000D01*
%TO.N,SDA*%
X170128000Y-103555000D02*
X165998980Y-107684020D01*
X165998980Y-107684020D02*
X165998980Y-116015980D01*
X171958000Y-121975000D02*
X171958000Y-123825000D01*
X171998000Y-103555000D02*
X170128000Y-103555000D01*
X165998980Y-116015980D02*
X171958000Y-121975000D01*
%TO.N,SCK*%
X167498490Y-114986118D02*
X174498000Y-121985628D01*
X171998000Y-106095000D02*
X170128000Y-106095000D01*
X170128000Y-106095000D02*
X167498490Y-108724510D01*
X174498000Y-121985628D02*
X174498000Y-123825000D01*
X167498490Y-108724510D02*
X167498490Y-114986118D01*
%TO.N,TX*%
X145034000Y-83211000D02*
X145188000Y-83365000D01*
X145034000Y-75565000D02*
X145034000Y-83211000D01*
%TO.N,RX*%
X147728000Y-75719000D02*
X147574000Y-75565000D01*
X147728000Y-83365000D02*
X147728000Y-75719000D01*
%TO.N,CLK*%
X169418000Y-77181000D02*
X174078000Y-81841000D01*
X169418000Y-75565000D02*
X169418000Y-77181000D01*
X174078000Y-81841000D02*
X174078000Y-83365000D01*
%TO.N,DATA*%
X171538000Y-82524409D02*
X171538000Y-83365000D01*
X166878000Y-75565000D02*
X166878000Y-77864409D01*
X166878000Y-77864409D02*
X171538000Y-82524409D01*
%TO.N,SWITCH*%
X168998000Y-82524409D02*
X168998000Y-83365000D01*
X164338000Y-77864409D02*
X168998000Y-82524409D01*
X164338000Y-75565000D02*
X164338000Y-77864409D01*
%TO.N,Net-(R1-Pad2)*%
X124808000Y-98365000D02*
X124808000Y-95745000D01*
X124808000Y-95745000D02*
X129188000Y-91365000D01*
%TD*%
%TA.AperFunction,Conductor*%
%TO.N,GND*%
G36*
X175182697Y-71893002D02*
G01*
X175228228Y-71944601D01*
X175750110Y-73034935D01*
X176213171Y-74002378D01*
X176234061Y-74046023D01*
X176245429Y-74116104D01*
X176217105Y-74181205D01*
X176158080Y-74220659D01*
X176087095Y-74221938D01*
X176026687Y-74184637D01*
X176020246Y-74176864D01*
X175927970Y-74055954D01*
X175927969Y-74055953D01*
X175925198Y-74052322D01*
X175921930Y-74049127D01*
X175731242Y-73862717D01*
X175731237Y-73862713D01*
X175727974Y-73859523D01*
X175724280Y-73856834D01*
X175508676Y-73699900D01*
X175508673Y-73699898D01*
X175504984Y-73697213D01*
X175260899Y-73568794D01*
X175000832Y-73476955D01*
X174901126Y-73457303D01*
X174734704Y-73424501D01*
X174734698Y-73424500D01*
X174730232Y-73423620D01*
X174725678Y-73423393D01*
X174725676Y-73423393D01*
X174459336Y-73410133D01*
X174459330Y-73410133D01*
X174454767Y-73409906D01*
X174180208Y-73436102D01*
X174175774Y-73437187D01*
X174175768Y-73437188D01*
X173916744Y-73500571D01*
X173912306Y-73501657D01*
X173656674Y-73605199D01*
X173652744Y-73607500D01*
X173652738Y-73607503D01*
X173422597Y-73742255D01*
X173422590Y-73742260D01*
X173418665Y-73744558D01*
X173415105Y-73747405D01*
X173308584Y-73832592D01*
X173242891Y-73859516D01*
X173173070Y-73846650D01*
X173155739Y-73836060D01*
X173150975Y-73832592D01*
X173033942Y-73747406D01*
X172968676Y-73699900D01*
X172968673Y-73699898D01*
X172964984Y-73697213D01*
X172720899Y-73568794D01*
X172460832Y-73476955D01*
X172361126Y-73457303D01*
X172194704Y-73424501D01*
X172194698Y-73424500D01*
X172190232Y-73423620D01*
X172185678Y-73423393D01*
X172185676Y-73423393D01*
X171919336Y-73410133D01*
X171919330Y-73410133D01*
X171914767Y-73409906D01*
X171640208Y-73436102D01*
X171635774Y-73437187D01*
X171635768Y-73437188D01*
X171376744Y-73500571D01*
X171372306Y-73501657D01*
X171116674Y-73605199D01*
X171112744Y-73607500D01*
X171112738Y-73607503D01*
X170882597Y-73742255D01*
X170882590Y-73742260D01*
X170878665Y-73744558D01*
X170875105Y-73747405D01*
X170768584Y-73832592D01*
X170702891Y-73859516D01*
X170633070Y-73846650D01*
X170615739Y-73836060D01*
X170610975Y-73832592D01*
X170493942Y-73747406D01*
X170428676Y-73699900D01*
X170428673Y-73699898D01*
X170424984Y-73697213D01*
X170180899Y-73568794D01*
X169920832Y-73476955D01*
X169821126Y-73457303D01*
X169654704Y-73424501D01*
X169654698Y-73424500D01*
X169650232Y-73423620D01*
X169645678Y-73423393D01*
X169645676Y-73423393D01*
X169379336Y-73410133D01*
X169379330Y-73410133D01*
X169374767Y-73409906D01*
X169100208Y-73436102D01*
X169095774Y-73437187D01*
X169095768Y-73437188D01*
X168836744Y-73500571D01*
X168832306Y-73501657D01*
X168576674Y-73605199D01*
X168572744Y-73607500D01*
X168572738Y-73607503D01*
X168342597Y-73742255D01*
X168342590Y-73742260D01*
X168338665Y-73744558D01*
X168335105Y-73747405D01*
X168228584Y-73832592D01*
X168162891Y-73859516D01*
X168093070Y-73846650D01*
X168075739Y-73836060D01*
X168070975Y-73832592D01*
X167953942Y-73747406D01*
X167888676Y-73699900D01*
X167888673Y-73699898D01*
X167884984Y-73697213D01*
X167640899Y-73568794D01*
X167380832Y-73476955D01*
X167281126Y-73457303D01*
X167114704Y-73424501D01*
X167114698Y-73424500D01*
X167110232Y-73423620D01*
X167105678Y-73423393D01*
X167105676Y-73423393D01*
X166839336Y-73410133D01*
X166839330Y-73410133D01*
X166834767Y-73409906D01*
X166560208Y-73436102D01*
X166555774Y-73437187D01*
X166555768Y-73437188D01*
X166296744Y-73500571D01*
X166292306Y-73501657D01*
X166036674Y-73605199D01*
X166032744Y-73607500D01*
X166032738Y-73607503D01*
X165802597Y-73742255D01*
X165802590Y-73742260D01*
X165798665Y-73744558D01*
X165795105Y-73747405D01*
X165688584Y-73832592D01*
X165622891Y-73859516D01*
X165553070Y-73846650D01*
X165535739Y-73836060D01*
X165530975Y-73832592D01*
X165413942Y-73747406D01*
X165348676Y-73699900D01*
X165348673Y-73699898D01*
X165344984Y-73697213D01*
X165100899Y-73568794D01*
X164840832Y-73476955D01*
X164741126Y-73457303D01*
X164574704Y-73424501D01*
X164574698Y-73424500D01*
X164570232Y-73423620D01*
X164565678Y-73423393D01*
X164565676Y-73423393D01*
X164299336Y-73410133D01*
X164299330Y-73410133D01*
X164294767Y-73409906D01*
X164020208Y-73436102D01*
X164015774Y-73437187D01*
X164015768Y-73437188D01*
X163756744Y-73500571D01*
X163752306Y-73501657D01*
X163496674Y-73605199D01*
X163492744Y-73607500D01*
X163492738Y-73607503D01*
X163262597Y-73742255D01*
X163262590Y-73742260D01*
X163258665Y-73744558D01*
X163255105Y-73747405D01*
X163148584Y-73832592D01*
X163082891Y-73859516D01*
X163013070Y-73846650D01*
X162995739Y-73836060D01*
X162990975Y-73832592D01*
X162873942Y-73747406D01*
X162808676Y-73699900D01*
X162808673Y-73699898D01*
X162804984Y-73697213D01*
X162560899Y-73568794D01*
X162300832Y-73476955D01*
X162201126Y-73457303D01*
X162034704Y-73424501D01*
X162034698Y-73424500D01*
X162030232Y-73423620D01*
X162025678Y-73423393D01*
X162025676Y-73423393D01*
X161759336Y-73410133D01*
X161759330Y-73410133D01*
X161754767Y-73409906D01*
X161480208Y-73436102D01*
X161475774Y-73437187D01*
X161475768Y-73437188D01*
X161216744Y-73500571D01*
X161212306Y-73501657D01*
X160956674Y-73605199D01*
X160952744Y-73607500D01*
X160952738Y-73607503D01*
X160722597Y-73742255D01*
X160722590Y-73742260D01*
X160718665Y-73744558D01*
X160715105Y-73747405D01*
X160608584Y-73832592D01*
X160542891Y-73859516D01*
X160473070Y-73846650D01*
X160455739Y-73836060D01*
X160450975Y-73832592D01*
X160333942Y-73747406D01*
X160268676Y-73699900D01*
X160268673Y-73699898D01*
X160264984Y-73697213D01*
X160020899Y-73568794D01*
X159760832Y-73476955D01*
X159661126Y-73457303D01*
X159494704Y-73424501D01*
X159494698Y-73424500D01*
X159490232Y-73423620D01*
X159485678Y-73423393D01*
X159485676Y-73423393D01*
X159219336Y-73410133D01*
X159219330Y-73410133D01*
X159214767Y-73409906D01*
X158940208Y-73436102D01*
X158935774Y-73437187D01*
X158935768Y-73437188D01*
X158676744Y-73500571D01*
X158672306Y-73501657D01*
X158416674Y-73605199D01*
X158412744Y-73607500D01*
X158412738Y-73607503D01*
X158182597Y-73742255D01*
X158182590Y-73742260D01*
X158178665Y-73744558D01*
X158175105Y-73747405D01*
X158068584Y-73832592D01*
X158002891Y-73859516D01*
X157933070Y-73846650D01*
X157915739Y-73836060D01*
X157910975Y-73832592D01*
X157793942Y-73747406D01*
X157728676Y-73699900D01*
X157728673Y-73699898D01*
X157724984Y-73697213D01*
X157480899Y-73568794D01*
X157220832Y-73476955D01*
X157121126Y-73457303D01*
X156954704Y-73424501D01*
X156954698Y-73424500D01*
X156950232Y-73423620D01*
X156945678Y-73423393D01*
X156945676Y-73423393D01*
X156679336Y-73410133D01*
X156679330Y-73410133D01*
X156674767Y-73409906D01*
X156400208Y-73436102D01*
X156395774Y-73437187D01*
X156395768Y-73437188D01*
X156136744Y-73500571D01*
X156132306Y-73501657D01*
X155876674Y-73605199D01*
X155872744Y-73607500D01*
X155872738Y-73607503D01*
X155642597Y-73742255D01*
X155642590Y-73742260D01*
X155638665Y-73744558D01*
X155635105Y-73747405D01*
X155445401Y-73899116D01*
X155423268Y-73916816D01*
X155420147Y-73920157D01*
X155264917Y-74086330D01*
X155234992Y-74118364D01*
X155077784Y-74344979D01*
X155075756Y-74349055D01*
X155075755Y-74349057D01*
X154994432Y-74512523D01*
X154954935Y-74591914D01*
X154869020Y-74853998D01*
X154868240Y-74858489D01*
X154868240Y-74858490D01*
X154835949Y-75044468D01*
X154821838Y-75125738D01*
X154817500Y-75212876D01*
X154817500Y-75885070D01*
X154817665Y-75887338D01*
X154817665Y-75887350D01*
X154825870Y-76000425D01*
X154832375Y-76090083D01*
X154833359Y-76094538D01*
X154833359Y-76094541D01*
X154874379Y-76280335D01*
X154891836Y-76359403D01*
X154989551Y-76617319D01*
X154991765Y-76621306D01*
X154991766Y-76621307D01*
X155121257Y-76854435D01*
X155123475Y-76858428D01*
X155126247Y-76862060D01*
X155288029Y-77074044D01*
X155290802Y-77077678D01*
X155294068Y-77080871D01*
X155294070Y-77080873D01*
X155484758Y-77267283D01*
X155484763Y-77267287D01*
X155488026Y-77270477D01*
X155491718Y-77273164D01*
X155491720Y-77273166D01*
X155697315Y-77422814D01*
X155711016Y-77432787D01*
X155955101Y-77561206D01*
X156215168Y-77653045D01*
X156314874Y-77672697D01*
X156481296Y-77705499D01*
X156481302Y-77705500D01*
X156485768Y-77706380D01*
X156490322Y-77706607D01*
X156490324Y-77706607D01*
X156756664Y-77719867D01*
X156756670Y-77719867D01*
X156761233Y-77720094D01*
X157035792Y-77693898D01*
X157040226Y-77692813D01*
X157040232Y-77692812D01*
X157299256Y-77629429D01*
X157303694Y-77628343D01*
X157559326Y-77524801D01*
X157563256Y-77522500D01*
X157563262Y-77522497D01*
X157793403Y-77387745D01*
X157793410Y-77387740D01*
X157797335Y-77385442D01*
X157800895Y-77382595D01*
X157907416Y-77297408D01*
X157973109Y-77270484D01*
X158042930Y-77283350D01*
X158060259Y-77293939D01*
X158118649Y-77336440D01*
X158237315Y-77422814D01*
X158251016Y-77432787D01*
X158495101Y-77561206D01*
X158755168Y-77653045D01*
X158854874Y-77672697D01*
X159021296Y-77705499D01*
X159021302Y-77705500D01*
X159025768Y-77706380D01*
X159030322Y-77706607D01*
X159030324Y-77706607D01*
X159296664Y-77719867D01*
X159296670Y-77719867D01*
X159301233Y-77720094D01*
X159575792Y-77693898D01*
X159580226Y-77692813D01*
X159580232Y-77692812D01*
X159839256Y-77629429D01*
X159843694Y-77628343D01*
X160099326Y-77524801D01*
X160103256Y-77522500D01*
X160103262Y-77522497D01*
X160333403Y-77387745D01*
X160333410Y-77387740D01*
X160337335Y-77385442D01*
X160340895Y-77382595D01*
X160447416Y-77297408D01*
X160513109Y-77270484D01*
X160582930Y-77283350D01*
X160600259Y-77293939D01*
X160658649Y-77336440D01*
X160777315Y-77422814D01*
X160791016Y-77432787D01*
X161035101Y-77561206D01*
X161295168Y-77653045D01*
X161394874Y-77672697D01*
X161561296Y-77705499D01*
X161561302Y-77705500D01*
X161565768Y-77706380D01*
X161570322Y-77706607D01*
X161570324Y-77706607D01*
X161836664Y-77719867D01*
X161836670Y-77719867D01*
X161841233Y-77720094D01*
X162115792Y-77693898D01*
X162120226Y-77692813D01*
X162120232Y-77692812D01*
X162379256Y-77629429D01*
X162383694Y-77628343D01*
X162639326Y-77524801D01*
X162643256Y-77522500D01*
X162643262Y-77522497D01*
X162873403Y-77387745D01*
X162873410Y-77387740D01*
X162877335Y-77385442D01*
X162880899Y-77382591D01*
X162880903Y-77382589D01*
X162932805Y-77341082D01*
X162998498Y-77314157D01*
X163068319Y-77327022D01*
X163120100Y-77375594D01*
X163137500Y-77439484D01*
X163137500Y-77819680D01*
X163137230Y-77827921D01*
X163132770Y-77895969D01*
X163133449Y-77901704D01*
X163143699Y-77988304D01*
X163144040Y-77991558D01*
X163152546Y-78084120D01*
X163154116Y-78089687D01*
X163154117Y-78089691D01*
X163154152Y-78089815D01*
X163158008Y-78109198D01*
X163158704Y-78115076D01*
X163160416Y-78120588D01*
X163186272Y-78203860D01*
X163187186Y-78206944D01*
X163212435Y-78296473D01*
X163214988Y-78301650D01*
X163214992Y-78301660D01*
X163215054Y-78301785D01*
X163222379Y-78320146D01*
X163224131Y-78325788D01*
X163231123Y-78339077D01*
X163267403Y-78408034D01*
X163268896Y-78410965D01*
X163310020Y-78494356D01*
X163313564Y-78499102D01*
X163324108Y-78515814D01*
X163326863Y-78521050D01*
X163330440Y-78525587D01*
X163384417Y-78594057D01*
X163386413Y-78596659D01*
X163442033Y-78671142D01*
X163505518Y-78729827D01*
X163509084Y-78733257D01*
X165869621Y-81093793D01*
X165903646Y-81156105D01*
X165898582Y-81226920D01*
X165856035Y-81283756D01*
X165827828Y-81299672D01*
X165616674Y-81385199D01*
X165612744Y-81387500D01*
X165612738Y-81387503D01*
X165382597Y-81522255D01*
X165382590Y-81522260D01*
X165378665Y-81524558D01*
X165375105Y-81527405D01*
X165185401Y-81679116D01*
X165163268Y-81696816D01*
X165160147Y-81700157D01*
X164995804Y-81876085D01*
X164934686Y-81912211D01*
X164863739Y-81909559D01*
X164823753Y-81887437D01*
X164785348Y-81855891D01*
X164777067Y-81850135D01*
X164576081Y-81733159D01*
X164566976Y-81728797D01*
X164349885Y-81645463D01*
X164340196Y-81642612D01*
X164189736Y-81611179D01*
X164175675Y-81612302D01*
X164172000Y-81622410D01*
X164172000Y-85105590D01*
X164183060Y-85143258D01*
X164197195Y-85165253D01*
X164197193Y-85236249D01*
X164165393Y-85289843D01*
X160327642Y-89127595D01*
X160265330Y-89161621D01*
X160238547Y-89164500D01*
X150340454Y-89164500D01*
X150272333Y-89144498D01*
X150225840Y-89090842D01*
X150215736Y-89020568D01*
X150245230Y-88955988D01*
X150251359Y-88949405D01*
X153625251Y-85575513D01*
X153631269Y-85569876D01*
X153678196Y-85528722D01*
X153682543Y-85524910D01*
X153740100Y-85451899D01*
X153742138Y-85449381D01*
X153801602Y-85377883D01*
X153804498Y-85372713D01*
X153815471Y-85356291D01*
X153815562Y-85356176D01*
X153815565Y-85356171D01*
X153819137Y-85351640D01*
X153831713Y-85327737D01*
X153862409Y-85269395D01*
X153863982Y-85266498D01*
X153894943Y-85211212D01*
X153926184Y-85174374D01*
X153997417Y-85117408D01*
X154063110Y-85090484D01*
X154132931Y-85103350D01*
X154150259Y-85113939D01*
X154208649Y-85156440D01*
X154272060Y-85202595D01*
X154341016Y-85252787D01*
X154585101Y-85381206D01*
X154845168Y-85473045D01*
X154944874Y-85492697D01*
X155111296Y-85525499D01*
X155111302Y-85525500D01*
X155115768Y-85526380D01*
X155120322Y-85526607D01*
X155120324Y-85526607D01*
X155386664Y-85539867D01*
X155386670Y-85539867D01*
X155391233Y-85540094D01*
X155665792Y-85513898D01*
X155670226Y-85512813D01*
X155670232Y-85512812D01*
X155929256Y-85449429D01*
X155933694Y-85448343D01*
X156189326Y-85344801D01*
X156193256Y-85342500D01*
X156193262Y-85342497D01*
X156423403Y-85207745D01*
X156423410Y-85207740D01*
X156427335Y-85205442D01*
X156541752Y-85113940D01*
X156639166Y-85036036D01*
X156639167Y-85036035D01*
X156642732Y-85033184D01*
X156831008Y-84831636D01*
X156988216Y-84605021D01*
X157016705Y-84547757D01*
X157109032Y-84362173D01*
X157109033Y-84362170D01*
X157111065Y-84358086D01*
X157196980Y-84096002D01*
X157216823Y-83981718D01*
X157243506Y-83828043D01*
X157243507Y-83828035D01*
X157244162Y-83824262D01*
X157246387Y-83779577D01*
X157248422Y-83738695D01*
X157248422Y-83738687D01*
X157248500Y-83737124D01*
X157248500Y-83693456D01*
X162410000Y-83693456D01*
X162410202Y-83698488D01*
X162424150Y-83871843D01*
X162425762Y-83881796D01*
X162481233Y-84107633D01*
X162484416Y-84117203D01*
X162575280Y-84331265D01*
X162579955Y-84340207D01*
X162703874Y-84536987D01*
X162709914Y-84545060D01*
X162863703Y-84719500D01*
X162870956Y-84726504D01*
X163050654Y-84874110D01*
X163058936Y-84879866D01*
X163259919Y-84996841D01*
X163269024Y-85001203D01*
X163486115Y-85084537D01*
X163495804Y-85087388D01*
X163646264Y-85118821D01*
X163660325Y-85117698D01*
X163664000Y-85107590D01*
X163664000Y-83637115D01*
X163659525Y-83621876D01*
X163658135Y-83620671D01*
X163650452Y-83619000D01*
X162428115Y-83619000D01*
X162412876Y-83623475D01*
X162411671Y-83624865D01*
X162410000Y-83632548D01*
X162410000Y-83693456D01*
X157248500Y-83693456D01*
X157248500Y-83092885D01*
X162410000Y-83092885D01*
X162414475Y-83108124D01*
X162415865Y-83109329D01*
X162423548Y-83111000D01*
X163645885Y-83111000D01*
X163661124Y-83106525D01*
X163662329Y-83105135D01*
X163664000Y-83097452D01*
X163664000Y-81624410D01*
X163659864Y-81610324D01*
X163646886Y-81608275D01*
X163629170Y-81610325D01*
X163619273Y-81612285D01*
X163395506Y-81675604D01*
X163386062Y-81679116D01*
X163175295Y-81777399D01*
X163166529Y-81782378D01*
X162974198Y-81913087D01*
X162966323Y-81919419D01*
X162797374Y-82079186D01*
X162790613Y-82086695D01*
X162649375Y-82271426D01*
X162643911Y-82279905D01*
X162534022Y-82484847D01*
X162529980Y-82494099D01*
X162454273Y-82713971D01*
X162451764Y-82723743D01*
X162411996Y-82953971D01*
X162411141Y-82961843D01*
X162410064Y-82985551D01*
X162410000Y-82988384D01*
X162410000Y-83092885D01*
X157248500Y-83092885D01*
X157248500Y-83024930D01*
X157246289Y-82994446D01*
X157233955Y-82824468D01*
X157233625Y-82819917D01*
X157192578Y-82633998D01*
X157175148Y-82555053D01*
X157175147Y-82555050D01*
X157174164Y-82550597D01*
X157076449Y-82292681D01*
X156942525Y-82051572D01*
X156788793Y-81850135D01*
X156777970Y-81835954D01*
X156777969Y-81835953D01*
X156775198Y-81832322D01*
X156724108Y-81782378D01*
X156581242Y-81642717D01*
X156581237Y-81642713D01*
X156577974Y-81639523D01*
X156566020Y-81630822D01*
X156358676Y-81479900D01*
X156358673Y-81479898D01*
X156354984Y-81477213D01*
X156110899Y-81348794D01*
X155850832Y-81256955D01*
X155698447Y-81226920D01*
X155584704Y-81204501D01*
X155584698Y-81204500D01*
X155580232Y-81203620D01*
X155575678Y-81203393D01*
X155575676Y-81203393D01*
X155309336Y-81190133D01*
X155309330Y-81190133D01*
X155304767Y-81189906D01*
X155030208Y-81216102D01*
X155025774Y-81217187D01*
X155025768Y-81217188D01*
X154824599Y-81266414D01*
X154762306Y-81281657D01*
X154506674Y-81385199D01*
X154502744Y-81387500D01*
X154502738Y-81387503D01*
X154272597Y-81522255D01*
X154272590Y-81522260D01*
X154268665Y-81524558D01*
X154265105Y-81527405D01*
X154158584Y-81612592D01*
X154092891Y-81639516D01*
X154023070Y-81626650D01*
X154005739Y-81616060D01*
X154000975Y-81612592D01*
X153895864Y-81536084D01*
X153818676Y-81479900D01*
X153818673Y-81479898D01*
X153814984Y-81477213D01*
X153570899Y-81348794D01*
X153310832Y-81256955D01*
X153158447Y-81226920D01*
X153044704Y-81204501D01*
X153044698Y-81204500D01*
X153040232Y-81203620D01*
X153035678Y-81203393D01*
X153035676Y-81203393D01*
X152769336Y-81190133D01*
X152769330Y-81190133D01*
X152764767Y-81189906D01*
X152490208Y-81216102D01*
X152485774Y-81217187D01*
X152485768Y-81217188D01*
X152284599Y-81266414D01*
X152222306Y-81281657D01*
X151966674Y-81385199D01*
X151962744Y-81387500D01*
X151962738Y-81387503D01*
X151732597Y-81522255D01*
X151732590Y-81522260D01*
X151728665Y-81524558D01*
X151725105Y-81527405D01*
X151535401Y-81679116D01*
X151513268Y-81696816D01*
X151510147Y-81700157D01*
X151345804Y-81876085D01*
X151284686Y-81912211D01*
X151213739Y-81909559D01*
X151173753Y-81887437D01*
X151135348Y-81855891D01*
X151127067Y-81850135D01*
X150926081Y-81733159D01*
X150916976Y-81728797D01*
X150699885Y-81645463D01*
X150690196Y-81642612D01*
X150539736Y-81611179D01*
X150525675Y-81612302D01*
X150522000Y-81622410D01*
X150522000Y-85105590D01*
X150533060Y-85143258D01*
X150547195Y-85165253D01*
X150547193Y-85236249D01*
X150515393Y-85289843D01*
X146677642Y-89127595D01*
X146615330Y-89161621D01*
X146588547Y-89164500D01*
X143547453Y-89164500D01*
X143479332Y-89144498D01*
X143458358Y-89127595D01*
X135878520Y-81547757D01*
X135872883Y-81541739D01*
X135831715Y-81494796D01*
X135827910Y-81490457D01*
X135807004Y-81473976D01*
X135754886Y-81432889D01*
X135752324Y-81430814D01*
X135685325Y-81375092D01*
X135685323Y-81375090D01*
X135680883Y-81371398D01*
X135675839Y-81368573D01*
X135675713Y-81368502D01*
X135659291Y-81357529D01*
X135659176Y-81357438D01*
X135659171Y-81357435D01*
X135654640Y-81353863D01*
X135572383Y-81310585D01*
X135569502Y-81309021D01*
X135488379Y-81263590D01*
X135482780Y-81261690D01*
X135464613Y-81253884D01*
X135464494Y-81253822D01*
X135464492Y-81253821D01*
X135459380Y-81251131D01*
X135370606Y-81223566D01*
X135367480Y-81222550D01*
X135284921Y-81194525D01*
X135284916Y-81194524D01*
X135279452Y-81192669D01*
X135273584Y-81191818D01*
X135254330Y-81187461D01*
X135254183Y-81187415D01*
X135254177Y-81187414D01*
X135248667Y-81185703D01*
X135242939Y-81185025D01*
X135242934Y-81185024D01*
X135169194Y-81176297D01*
X135156344Y-81174776D01*
X135153085Y-81174347D01*
X135127927Y-81170699D01*
X135066811Y-81161837D01*
X135066807Y-81161837D01*
X135061098Y-81161009D01*
X134974714Y-81164403D01*
X134969767Y-81164500D01*
X133042729Y-81164500D01*
X133034488Y-81164230D01*
X133017556Y-81163120D01*
X132966440Y-81159770D01*
X132874073Y-81170702D01*
X132870851Y-81171040D01*
X132778289Y-81179546D01*
X132772722Y-81181116D01*
X132772718Y-81181117D01*
X132772594Y-81181152D01*
X132753211Y-81185008D01*
X132753079Y-81185024D01*
X132747333Y-81185704D01*
X132658549Y-81213272D01*
X132655465Y-81214186D01*
X132565936Y-81239435D01*
X132560759Y-81241988D01*
X132560749Y-81241992D01*
X132560624Y-81242054D01*
X132542263Y-81249379D01*
X132542140Y-81249417D01*
X132542138Y-81249418D01*
X132536621Y-81251131D01*
X132454375Y-81294403D01*
X132451444Y-81295896D01*
X132368053Y-81337020D01*
X132363307Y-81340564D01*
X132346595Y-81351108D01*
X132341359Y-81353863D01*
X132271499Y-81408936D01*
X132268352Y-81411417D01*
X132265750Y-81413413D01*
X132191267Y-81469033D01*
X132157117Y-81505976D01*
X132132582Y-81532518D01*
X132129152Y-81536084D01*
X130521246Y-83143991D01*
X130515228Y-83149628D01*
X130463946Y-83194601D01*
X130460374Y-83199132D01*
X130406378Y-83267625D01*
X130404303Y-83270187D01*
X130364500Y-83318046D01*
X130344887Y-83341628D01*
X130342062Y-83346672D01*
X130341991Y-83346798D01*
X130331018Y-83363220D01*
X130330927Y-83363335D01*
X130330924Y-83363340D01*
X130327352Y-83367871D01*
X130324662Y-83372984D01*
X130284074Y-83450128D01*
X130282510Y-83453009D01*
X130237079Y-83534132D01*
X130235179Y-83539731D01*
X130227373Y-83557898D01*
X130224620Y-83563131D01*
X130215771Y-83591631D01*
X130197058Y-83651895D01*
X130196039Y-83655031D01*
X130168173Y-83737124D01*
X130166158Y-83743059D01*
X130165307Y-83748927D01*
X130160950Y-83768181D01*
X130160904Y-83768328D01*
X130160903Y-83768334D01*
X130159192Y-83773844D01*
X130158514Y-83779572D01*
X130158513Y-83779577D01*
X130148266Y-83866161D01*
X130147836Y-83869426D01*
X130134498Y-83961413D01*
X130135852Y-83995868D01*
X130137892Y-84047797D01*
X130137989Y-84052744D01*
X130137989Y-85516985D01*
X130117987Y-85585106D01*
X130064331Y-85631599D01*
X129994057Y-85641703D01*
X129929477Y-85612209D01*
X129922894Y-85606080D01*
X128864571Y-84547757D01*
X128858934Y-84541739D01*
X128817766Y-84494796D01*
X128813961Y-84490457D01*
X128741141Y-84433050D01*
X128740937Y-84432889D01*
X128738375Y-84430814D01*
X128671376Y-84375092D01*
X128671374Y-84375090D01*
X128666934Y-84371398D01*
X128661890Y-84368573D01*
X128661764Y-84368502D01*
X128645342Y-84357529D01*
X128645227Y-84357438D01*
X128645222Y-84357435D01*
X128640691Y-84353863D01*
X128558434Y-84310585D01*
X128555553Y-84309021D01*
X128474430Y-84263590D01*
X128468831Y-84261690D01*
X128450664Y-84253884D01*
X128450545Y-84253822D01*
X128445431Y-84251131D01*
X128356657Y-84223566D01*
X128353531Y-84222550D01*
X128270972Y-84194525D01*
X128270967Y-84194524D01*
X128265503Y-84192669D01*
X128259635Y-84191818D01*
X128240381Y-84187461D01*
X128240234Y-84187415D01*
X128240228Y-84187414D01*
X128234718Y-84185703D01*
X128228990Y-84185025D01*
X128228985Y-84185024D01*
X128155245Y-84176297D01*
X128142395Y-84174776D01*
X128139136Y-84174347D01*
X128047149Y-84161009D01*
X128047376Y-84159444D01*
X127987438Y-84138379D01*
X127957927Y-84108543D01*
X127881204Y-83999378D01*
X127881203Y-83999377D01*
X127878737Y-83995868D01*
X127677282Y-83779076D01*
X127664151Y-83768328D01*
X127523832Y-83653479D01*
X127448268Y-83591631D01*
X127363360Y-83539599D01*
X127199584Y-83439236D01*
X127199576Y-83439232D01*
X127195934Y-83437000D01*
X127192017Y-83435281D01*
X127192014Y-83435279D01*
X127050101Y-83372984D01*
X126924949Y-83318046D01*
X126920821Y-83316870D01*
X126920818Y-83316869D01*
X126644455Y-83238145D01*
X126644456Y-83238145D01*
X126640327Y-83236969D01*
X126420529Y-83205688D01*
X126351587Y-83195876D01*
X126351585Y-83195876D01*
X126347335Y-83195271D01*
X126343046Y-83195249D01*
X126343039Y-83195248D01*
X126055681Y-83193743D01*
X126055674Y-83193743D01*
X126051395Y-83193721D01*
X126047151Y-83194280D01*
X126047147Y-83194280D01*
X125918305Y-83211242D01*
X125757982Y-83232349D01*
X125472527Y-83310441D01*
X125450653Y-83319771D01*
X125204253Y-83424869D01*
X125204246Y-83424873D01*
X125200311Y-83426551D01*
X125046808Y-83518421D01*
X124950054Y-83576327D01*
X124950050Y-83576330D01*
X124946372Y-83578531D01*
X124715408Y-83763568D01*
X124712464Y-83766670D01*
X124712460Y-83766674D01*
X124514643Y-83975129D01*
X124511693Y-83978238D01*
X124338997Y-84218570D01*
X124200516Y-84480115D01*
X124098812Y-84758035D01*
X124035767Y-85047186D01*
X124028206Y-85143258D01*
X124019586Y-85252787D01*
X124012547Y-85342218D01*
X124029583Y-85637671D01*
X124030408Y-85641876D01*
X124030409Y-85641884D01*
X124055266Y-85768580D01*
X124086559Y-85928079D01*
X124087946Y-85932130D01*
X124168049Y-86166092D01*
X124182420Y-86208068D01*
X124315394Y-86472456D01*
X124483018Y-86716352D01*
X124682193Y-86935241D01*
X124685482Y-86937991D01*
X124905939Y-87122323D01*
X124905944Y-87122327D01*
X124909231Y-87125075D01*
X124967653Y-87161723D01*
X125156292Y-87280056D01*
X125156296Y-87280058D01*
X125159932Y-87282339D01*
X125163842Y-87284104D01*
X125163843Y-87284105D01*
X125425744Y-87402358D01*
X125425748Y-87402360D01*
X125429656Y-87404124D01*
X125433775Y-87405344D01*
X125709301Y-87486959D01*
X125709305Y-87486960D01*
X125713414Y-87488177D01*
X125717648Y-87488825D01*
X125717653Y-87488826D01*
X125976964Y-87528506D01*
X126005953Y-87532942D01*
X126156665Y-87535309D01*
X126297570Y-87537523D01*
X126297576Y-87537523D01*
X126301861Y-87537590D01*
X126595662Y-87502037D01*
X126881919Y-87426938D01*
X127155336Y-87313685D01*
X127205957Y-87284105D01*
X127407145Y-87166540D01*
X127407147Y-87166538D01*
X127410853Y-87164373D01*
X127643742Y-86981765D01*
X127682287Y-86941989D01*
X127744056Y-86906990D01*
X127814943Y-86910941D01*
X127861866Y-86940579D01*
X130021290Y-89100003D01*
X130055316Y-89162315D01*
X130050251Y-89233130D01*
X130007704Y-89289966D01*
X129941184Y-89314777D01*
X129897676Y-89310277D01*
X129735097Y-89263965D01*
X129640327Y-89236969D01*
X129420529Y-89205688D01*
X129351587Y-89195876D01*
X129351585Y-89195876D01*
X129347335Y-89195271D01*
X129343046Y-89195249D01*
X129343039Y-89195248D01*
X129055681Y-89193743D01*
X129055674Y-89193743D01*
X129051395Y-89193721D01*
X129047151Y-89194280D01*
X129047147Y-89194280D01*
X128918305Y-89211242D01*
X128757982Y-89232349D01*
X128753842Y-89233482D01*
X128753840Y-89233482D01*
X128476672Y-89309307D01*
X128472527Y-89310441D01*
X128450653Y-89319771D01*
X128204253Y-89424869D01*
X128204246Y-89424873D01*
X128200311Y-89426551D01*
X128113112Y-89478739D01*
X127950054Y-89576327D01*
X127950050Y-89576330D01*
X127946372Y-89578531D01*
X127715408Y-89763568D01*
X127712464Y-89766670D01*
X127712460Y-89766674D01*
X127700691Y-89779076D01*
X127511693Y-89978238D01*
X127338997Y-90218570D01*
X127200516Y-90480115D01*
X127098812Y-90758035D01*
X127035767Y-91047186D01*
X127012547Y-91342218D01*
X127029583Y-91637671D01*
X127044449Y-91713440D01*
X127047490Y-91728941D01*
X127040977Y-91799638D01*
X127012942Y-91842294D01*
X123990757Y-94864480D01*
X123984739Y-94870117D01*
X123933457Y-94915090D01*
X123929885Y-94919621D01*
X123875889Y-94988114D01*
X123873814Y-94990676D01*
X123814398Y-95062117D01*
X123811573Y-95067161D01*
X123811502Y-95067287D01*
X123800529Y-95083709D01*
X123800438Y-95083824D01*
X123800435Y-95083829D01*
X123796863Y-95088360D01*
X123794173Y-95093473D01*
X123753585Y-95170617D01*
X123752021Y-95173498D01*
X123706590Y-95254621D01*
X123704690Y-95260220D01*
X123696884Y-95278387D01*
X123694131Y-95283620D01*
X123692418Y-95289137D01*
X123666569Y-95372384D01*
X123665550Y-95375520D01*
X123635669Y-95463548D01*
X123634818Y-95469416D01*
X123630461Y-95488670D01*
X123630415Y-95488817D01*
X123630414Y-95488823D01*
X123628703Y-95494333D01*
X123628025Y-95500061D01*
X123628024Y-95500066D01*
X123617777Y-95586650D01*
X123617346Y-95589922D01*
X123605683Y-95670359D01*
X123604009Y-95681902D01*
X123605853Y-95728836D01*
X123607403Y-95768286D01*
X123607500Y-95773233D01*
X123607500Y-96485077D01*
X123587498Y-96553198D01*
X123560282Y-96583410D01*
X123335408Y-96763568D01*
X123332464Y-96766670D01*
X123332460Y-96766674D01*
X123134643Y-96975129D01*
X123131693Y-96978238D01*
X122958997Y-97218570D01*
X122820516Y-97480115D01*
X122718812Y-97758035D01*
X122655767Y-98047186D01*
X122632547Y-98342218D01*
X122649583Y-98637671D01*
X122650408Y-98641876D01*
X122650409Y-98641884D01*
X122673159Y-98757838D01*
X122706559Y-98928079D01*
X122707946Y-98932130D01*
X122798246Y-99195876D01*
X122802420Y-99208068D01*
X122935394Y-99472456D01*
X123103018Y-99716352D01*
X123302193Y-99935241D01*
X123305482Y-99937991D01*
X123525939Y-100122323D01*
X123525944Y-100122327D01*
X123529231Y-100125075D01*
X123560194Y-100144498D01*
X123776292Y-100280056D01*
X123776296Y-100280058D01*
X123779932Y-100282339D01*
X123783842Y-100284104D01*
X123783843Y-100284105D01*
X124045744Y-100402358D01*
X124045748Y-100402360D01*
X124049656Y-100404124D01*
X124078919Y-100412792D01*
X124329301Y-100486959D01*
X124329305Y-100486960D01*
X124333414Y-100488177D01*
X124337648Y-100488825D01*
X124337653Y-100488826D01*
X124596964Y-100528506D01*
X124625953Y-100532942D01*
X124776665Y-100535309D01*
X124917570Y-100537523D01*
X124917576Y-100537523D01*
X124921861Y-100537590D01*
X125215662Y-100502037D01*
X125501919Y-100426938D01*
X125775336Y-100313685D01*
X125825957Y-100284105D01*
X126027145Y-100166540D01*
X126027147Y-100166538D01*
X126030853Y-100164373D01*
X126263742Y-99981765D01*
X126469693Y-99769240D01*
X126472226Y-99765792D01*
X126472230Y-99765787D01*
X126642358Y-99534185D01*
X126644896Y-99530730D01*
X126695788Y-99437000D01*
X126784061Y-99274421D01*
X126786109Y-99270649D01*
X126881465Y-99018294D01*
X126889202Y-98997819D01*
X126889203Y-98997816D01*
X126890717Y-98993809D01*
X126938547Y-98784974D01*
X126955830Y-98709514D01*
X126955831Y-98709509D01*
X126956787Y-98705334D01*
X126983095Y-98410562D01*
X126983572Y-98365000D01*
X126963443Y-98069741D01*
X126959657Y-98051456D01*
X126904299Y-97784143D01*
X126903430Y-97779946D01*
X126804641Y-97500976D01*
X126795955Y-97484146D01*
X126670872Y-97241802D01*
X126670872Y-97241801D01*
X126668907Y-97237995D01*
X126665234Y-97232768D01*
X126501204Y-96999378D01*
X126501203Y-96999377D01*
X126498737Y-96995868D01*
X126297282Y-96779076D01*
X126212567Y-96709738D01*
X126071583Y-96594344D01*
X126071580Y-96594342D01*
X126068268Y-96591631D01*
X126064619Y-96589395D01*
X126061508Y-96587184D01*
X126017569Y-96531418D01*
X126008500Y-96484480D01*
X126008500Y-96294454D01*
X126028502Y-96226333D01*
X126045405Y-96205359D01*
X127339479Y-94911285D01*
X128710957Y-93539806D01*
X128773269Y-93505780D01*
X128819110Y-93504351D01*
X129005953Y-93532942D01*
X129156665Y-93535309D01*
X129297570Y-93537523D01*
X129297576Y-93537523D01*
X129301861Y-93537590D01*
X129595662Y-93502037D01*
X129881919Y-93426938D01*
X130155336Y-93313685D01*
X130261444Y-93251681D01*
X130407145Y-93166540D01*
X130407147Y-93166538D01*
X130410853Y-93164373D01*
X130643742Y-92981765D01*
X130704003Y-92919581D01*
X130846710Y-92772318D01*
X130849693Y-92769240D01*
X130852226Y-92765792D01*
X130852230Y-92765787D01*
X131022358Y-92534185D01*
X131024896Y-92530730D01*
X131166109Y-92270649D01*
X131250986Y-92046026D01*
X131269202Y-91997819D01*
X131269203Y-91997816D01*
X131270717Y-91993809D01*
X131305419Y-91842294D01*
X131335830Y-91709514D01*
X131335831Y-91709509D01*
X131336787Y-91705334D01*
X131363095Y-91410562D01*
X131363572Y-91365000D01*
X131343443Y-91069741D01*
X131340265Y-91054392D01*
X131284299Y-90784143D01*
X131283430Y-90779946D01*
X131240237Y-90657973D01*
X131236353Y-90587082D01*
X131271411Y-90525346D01*
X131334281Y-90492363D01*
X131405003Y-90498607D01*
X131448105Y-90526818D01*
X131760595Y-90839308D01*
X131794621Y-90901620D01*
X131797500Y-90928403D01*
X131797500Y-95541458D01*
X131777498Y-95609579D01*
X131723842Y-95656072D01*
X131653568Y-95666176D01*
X131638888Y-95663164D01*
X131635229Y-95662184D01*
X131635227Y-95662184D01*
X131629645Y-95660688D01*
X131614474Y-95659494D01*
X131553477Y-95654693D01*
X131553470Y-95654693D01*
X131551021Y-95654500D01*
X130238532Y-95654500D01*
X128924980Y-95654501D01*
X128876057Y-95658351D01*
X128852109Y-95660235D01*
X128852107Y-95660235D01*
X128846355Y-95660688D01*
X128810262Y-95670359D01*
X128680083Y-95705240D01*
X128663512Y-95709680D01*
X128577666Y-95753420D01*
X128500732Y-95792620D01*
X128500729Y-95792622D01*
X128494851Y-95795617D01*
X128489722Y-95799770D01*
X128489718Y-95799773D01*
X128453915Y-95828766D01*
X128347743Y-95914743D01*
X128343588Y-95919874D01*
X128232773Y-96056718D01*
X128232770Y-96056722D01*
X128228617Y-96061851D01*
X128225622Y-96067729D01*
X128225620Y-96067732D01*
X128201876Y-96114333D01*
X128142680Y-96230512D01*
X128140972Y-96236885D01*
X128140972Y-96236886D01*
X128095182Y-96407777D01*
X128095181Y-96407783D01*
X128093688Y-96413355D01*
X128093235Y-96419111D01*
X128088475Y-96479597D01*
X128087500Y-96491979D01*
X128087501Y-98618020D01*
X128093688Y-98696645D01*
X128142680Y-98879488D01*
X128186420Y-98965334D01*
X128212066Y-99015665D01*
X128228617Y-99048149D01*
X128262805Y-99090368D01*
X128290130Y-99155892D01*
X128276394Y-99228324D01*
X128221794Y-99332101D01*
X128129955Y-99592168D01*
X128129075Y-99596634D01*
X128092587Y-99781760D01*
X128076620Y-99862768D01*
X128076393Y-99867322D01*
X128076393Y-99867324D01*
X128063448Y-100127354D01*
X128062906Y-100138233D01*
X128089102Y-100412792D01*
X128090187Y-100417226D01*
X128090188Y-100417232D01*
X128119623Y-100537523D01*
X128154657Y-100680694D01*
X128258199Y-100936326D01*
X128260500Y-100940256D01*
X128260503Y-100940262D01*
X128395255Y-101170403D01*
X128395260Y-101170410D01*
X128397558Y-101174335D01*
X128400409Y-101177899D01*
X128400411Y-101177903D01*
X128441918Y-101229805D01*
X128468843Y-101295498D01*
X128455978Y-101365319D01*
X128407406Y-101417100D01*
X128343516Y-101434500D01*
X123272740Y-101434500D01*
X123264499Y-101434230D01*
X123252165Y-101433422D01*
X123196440Y-101429769D01*
X123181111Y-101431583D01*
X123104060Y-101440703D01*
X123100780Y-101441047D01*
X123014043Y-101449017D01*
X123014040Y-101449018D01*
X123008289Y-101449546D01*
X123002728Y-101451115D01*
X123002725Y-101451115D01*
X123002597Y-101451151D01*
X122983218Y-101455006D01*
X122983074Y-101455023D01*
X122983068Y-101455024D01*
X122977333Y-101455703D01*
X122891516Y-101482350D01*
X122888549Y-101483271D01*
X122885386Y-101484208D01*
X122801488Y-101507869D01*
X122801486Y-101507870D01*
X122795936Y-101509435D01*
X122790765Y-101511985D01*
X122790752Y-101511990D01*
X122790621Y-101512055D01*
X122772278Y-101519373D01*
X122772142Y-101519415D01*
X122772136Y-101519418D01*
X122766621Y-101521130D01*
X122761512Y-101523818D01*
X122684351Y-101564414D01*
X122681420Y-101565907D01*
X122598053Y-101607020D01*
X122593310Y-101610562D01*
X122576600Y-101621105D01*
X122571360Y-101623862D01*
X122498359Y-101681412D01*
X122495758Y-101683408D01*
X122421267Y-101739033D01*
X122381207Y-101782370D01*
X122362570Y-101802531D01*
X122359140Y-101806097D01*
X119975535Y-104189702D01*
X119913223Y-104223728D01*
X119868687Y-104225350D01*
X119661587Y-104195876D01*
X119661585Y-104195876D01*
X119657335Y-104195271D01*
X119653046Y-104195249D01*
X119653039Y-104195248D01*
X119365681Y-104193743D01*
X119365674Y-104193743D01*
X119361395Y-104193721D01*
X119357151Y-104194280D01*
X119357147Y-104194280D01*
X119125282Y-104224805D01*
X119055133Y-104213865D01*
X119019741Y-104188978D01*
X118425405Y-103594642D01*
X118391379Y-103532330D01*
X118388500Y-103505547D01*
X118388500Y-100243218D01*
X118408502Y-100175097D01*
X118436754Y-100144064D01*
X118640361Y-99984416D01*
X118643742Y-99981765D01*
X118849693Y-99769240D01*
X118852226Y-99765792D01*
X118852230Y-99765787D01*
X119022358Y-99534185D01*
X119024896Y-99530730D01*
X119075788Y-99437000D01*
X119164061Y-99274421D01*
X119166109Y-99270649D01*
X119261465Y-99018294D01*
X119269202Y-98997819D01*
X119269203Y-98997816D01*
X119270717Y-98993809D01*
X119318547Y-98784974D01*
X119335830Y-98709514D01*
X119335831Y-98709509D01*
X119336787Y-98705334D01*
X119363095Y-98410562D01*
X119363572Y-98365000D01*
X119343443Y-98069741D01*
X119339657Y-98051456D01*
X119284299Y-97784143D01*
X119283430Y-97779946D01*
X119184641Y-97500976D01*
X119175955Y-97484146D01*
X119050872Y-97241802D01*
X119050872Y-97241801D01*
X119048907Y-97237995D01*
X119045234Y-97232768D01*
X118881204Y-96999378D01*
X118881203Y-96999377D01*
X118878737Y-96995868D01*
X118677282Y-96779076D01*
X118448268Y-96591631D01*
X118350010Y-96531418D01*
X118199584Y-96439236D01*
X118199576Y-96439232D01*
X118195934Y-96437000D01*
X118192017Y-96435281D01*
X118192014Y-96435279D01*
X118008736Y-96354826D01*
X117924949Y-96318046D01*
X117920821Y-96316870D01*
X117920818Y-96316869D01*
X117644455Y-96238145D01*
X117644456Y-96238145D01*
X117640327Y-96236969D01*
X117418219Y-96205359D01*
X117351587Y-96195876D01*
X117351585Y-96195876D01*
X117347335Y-96195271D01*
X117343046Y-96195249D01*
X117343039Y-96195248D01*
X117055681Y-96193743D01*
X117055674Y-96193743D01*
X117051395Y-96193721D01*
X117047151Y-96194280D01*
X117047147Y-96194280D01*
X116962994Y-96205359D01*
X116757982Y-96232349D01*
X116753842Y-96233482D01*
X116753840Y-96233482D01*
X116530965Y-96294454D01*
X116472527Y-96310441D01*
X116418607Y-96333440D01*
X116204253Y-96424869D01*
X116204246Y-96424873D01*
X116200311Y-96426551D01*
X116086864Y-96494448D01*
X115950054Y-96576327D01*
X115950050Y-96576330D01*
X115946372Y-96578531D01*
X115715408Y-96763568D01*
X115712464Y-96766670D01*
X115712460Y-96766674D01*
X115514643Y-96975129D01*
X115511693Y-96978238D01*
X115338997Y-97218570D01*
X115200516Y-97480115D01*
X115098812Y-97758035D01*
X115035767Y-98047186D01*
X115012547Y-98342218D01*
X115029583Y-98637671D01*
X115030408Y-98641876D01*
X115030409Y-98641884D01*
X115053159Y-98757838D01*
X115086559Y-98928079D01*
X115087946Y-98932130D01*
X115178246Y-99195876D01*
X115182420Y-99208068D01*
X115315394Y-99472456D01*
X115483018Y-99716352D01*
X115682193Y-99935241D01*
X115685482Y-99937991D01*
X115905939Y-100122323D01*
X115905944Y-100122327D01*
X115909231Y-100125075D01*
X115928458Y-100137136D01*
X115975534Y-100190279D01*
X115987500Y-100243872D01*
X115987500Y-104010271D01*
X115987230Y-104018512D01*
X115982770Y-104086560D01*
X115983449Y-104092295D01*
X115993699Y-104178895D01*
X115994040Y-104182149D01*
X116002546Y-104274711D01*
X116004116Y-104280278D01*
X116004117Y-104280282D01*
X116004152Y-104280406D01*
X116008008Y-104299789D01*
X116008704Y-104305667D01*
X116026646Y-104363449D01*
X116036272Y-104394451D01*
X116037186Y-104397535D01*
X116062435Y-104487064D01*
X116064988Y-104492241D01*
X116064992Y-104492251D01*
X116065054Y-104492376D01*
X116072379Y-104510737D01*
X116074131Y-104516379D01*
X116110745Y-104585971D01*
X116117403Y-104598625D01*
X116118896Y-104601556D01*
X116160020Y-104684947D01*
X116163564Y-104689693D01*
X116174108Y-104706405D01*
X116176863Y-104711641D01*
X116234417Y-104784648D01*
X116236413Y-104787250D01*
X116292033Y-104861733D01*
X116336961Y-104903264D01*
X116355518Y-104920418D01*
X116359084Y-104923848D01*
X117321551Y-105886315D01*
X117355577Y-105948627D01*
X117355564Y-106002251D01*
X117346680Y-106042997D01*
X117345767Y-106047186D01*
X117340131Y-106118802D01*
X117325904Y-106299570D01*
X117322547Y-106342218D01*
X117339583Y-106637671D01*
X117340408Y-106641876D01*
X117340409Y-106641884D01*
X117373223Y-106809137D01*
X117396559Y-106928079D01*
X117397946Y-106932130D01*
X117489395Y-107199232D01*
X117492420Y-107208068D01*
X117625394Y-107472456D01*
X117667819Y-107534185D01*
X117790201Y-107712253D01*
X117793018Y-107716352D01*
X117936737Y-107874296D01*
X117954693Y-107894029D01*
X117985745Y-107957875D01*
X117987500Y-107978829D01*
X117987500Y-109485077D01*
X117967498Y-109553198D01*
X117940282Y-109583410D01*
X117715408Y-109763568D01*
X117712464Y-109766670D01*
X117712460Y-109766674D01*
X117514643Y-109975129D01*
X117511693Y-109978238D01*
X117338997Y-110218570D01*
X117200516Y-110480115D01*
X117098812Y-110758035D01*
X117035767Y-111047186D01*
X117012547Y-111342218D01*
X117029583Y-111637671D01*
X117030408Y-111641876D01*
X117030409Y-111641884D01*
X117066135Y-111823976D01*
X117086559Y-111928079D01*
X117087946Y-111932130D01*
X117178246Y-112195876D01*
X117182420Y-112208068D01*
X117315394Y-112472456D01*
X117374859Y-112558978D01*
X117478942Y-112710421D01*
X117483018Y-112716352D01*
X117682193Y-112935241D01*
X117685482Y-112937991D01*
X117905939Y-113122323D01*
X117905944Y-113122327D01*
X117909231Y-113125075D01*
X118034582Y-113203707D01*
X118156292Y-113280056D01*
X118156296Y-113280058D01*
X118159932Y-113282339D01*
X118163842Y-113284104D01*
X118163843Y-113284105D01*
X118425744Y-113402358D01*
X118425748Y-113402360D01*
X118429656Y-113404124D01*
X118433775Y-113405344D01*
X118709301Y-113486959D01*
X118709305Y-113486960D01*
X118713414Y-113488177D01*
X118717648Y-113488825D01*
X118717653Y-113488826D01*
X118932617Y-113521720D01*
X119005953Y-113532942D01*
X119156665Y-113535309D01*
X119297570Y-113537523D01*
X119297576Y-113537523D01*
X119301861Y-113537590D01*
X119595662Y-113502037D01*
X119855721Y-113433811D01*
X119877776Y-113428025D01*
X119877777Y-113428025D01*
X119881919Y-113426938D01*
X120155336Y-113313685D01*
X120169260Y-113305549D01*
X120407145Y-113166540D01*
X120407147Y-113166538D01*
X120410853Y-113164373D01*
X120643742Y-112981765D01*
X120671618Y-112953000D01*
X120804819Y-112815546D01*
X120849693Y-112769240D01*
X120852226Y-112765792D01*
X120852230Y-112765787D01*
X121022358Y-112534185D01*
X121024896Y-112530730D01*
X121075788Y-112437000D01*
X121164061Y-112274421D01*
X121166109Y-112270649D01*
X121270717Y-111993809D01*
X121336787Y-111705334D01*
X121342755Y-111638460D01*
X125049477Y-111638460D01*
X125088947Y-111836894D01*
X125091441Y-111845887D01*
X125177578Y-112085797D01*
X125181378Y-112094332D01*
X125302031Y-112318877D01*
X125307042Y-112326744D01*
X125459572Y-112531006D01*
X125465677Y-112538030D01*
X125646726Y-112717505D01*
X125653808Y-112723554D01*
X125859394Y-112874296D01*
X125867293Y-112879232D01*
X126092901Y-112997930D01*
X126101450Y-113001647D01*
X126342113Y-113085690D01*
X126351122Y-113088104D01*
X126536202Y-113123243D01*
X126549261Y-113121959D01*
X126553771Y-113107782D01*
X127062000Y-113107782D01*
X127066171Y-113121987D01*
X127078934Y-113124043D01*
X127128270Y-113118640D01*
X127137447Y-113116939D01*
X127383960Y-113052037D01*
X127392780Y-113049000D01*
X127626997Y-112948373D01*
X127635269Y-112944066D01*
X127852040Y-112809925D01*
X127859578Y-112804448D01*
X128054145Y-112639735D01*
X128060790Y-112633205D01*
X128228874Y-112441543D01*
X128234486Y-112434095D01*
X128372391Y-112219697D01*
X128376838Y-112211506D01*
X128481536Y-111979085D01*
X128484731Y-111970307D01*
X128553921Y-111724977D01*
X128555782Y-111715830D01*
X128565814Y-111636970D01*
X128563526Y-111622708D01*
X128550506Y-111619000D01*
X127080115Y-111619000D01*
X127064876Y-111623475D01*
X127063671Y-111624865D01*
X127062000Y-111632548D01*
X127062000Y-113107782D01*
X126553771Y-113107782D01*
X126554000Y-113107063D01*
X126554000Y-111637115D01*
X126549525Y-111621876D01*
X126548135Y-111620671D01*
X126540452Y-111619000D01*
X125063721Y-111619000D01*
X125051320Y-111622641D01*
X125049477Y-111638460D01*
X121342755Y-111638460D01*
X121363095Y-111410562D01*
X121363572Y-111365000D01*
X121345856Y-111105135D01*
X121345027Y-111092974D01*
X125048317Y-111092974D01*
X125051077Y-111107703D01*
X125063255Y-111111000D01*
X126535885Y-111111000D01*
X126551124Y-111106525D01*
X126552329Y-111105135D01*
X126554000Y-111097452D01*
X126554000Y-111092885D01*
X127062000Y-111092885D01*
X127066475Y-111108124D01*
X127067865Y-111109329D01*
X127075548Y-111111000D01*
X128553995Y-111111000D01*
X128568872Y-111106632D01*
X128570481Y-111097646D01*
X128570368Y-111096894D01*
X128514109Y-110848262D01*
X128511385Y-110839351D01*
X128418990Y-110601758D01*
X128414979Y-110593349D01*
X128288481Y-110372025D01*
X128283270Y-110364299D01*
X128125446Y-110164100D01*
X128119153Y-110157232D01*
X127933477Y-109982566D01*
X127926222Y-109976691D01*
X127716776Y-109831392D01*
X127708741Y-109826659D01*
X127480106Y-109713909D01*
X127471473Y-109710421D01*
X127228681Y-109632703D01*
X127219620Y-109630527D01*
X127079878Y-109607769D01*
X127066285Y-109609465D01*
X127062000Y-109623572D01*
X127062000Y-111092885D01*
X126554000Y-111092885D01*
X126554000Y-109623209D01*
X126549982Y-109609526D01*
X126536290Y-109607504D01*
X126441930Y-109620346D01*
X126432803Y-109622287D01*
X126188084Y-109693616D01*
X126179331Y-109696888D01*
X125947837Y-109803608D01*
X125939682Y-109808128D01*
X125726500Y-109947896D01*
X125719095Y-109953579D01*
X125528919Y-110123317D01*
X125522434Y-110130033D01*
X125359433Y-110326020D01*
X125354018Y-110333612D01*
X125221776Y-110551540D01*
X125217538Y-110559857D01*
X125118961Y-110794935D01*
X125116000Y-110803785D01*
X125053255Y-111050849D01*
X125051633Y-111060046D01*
X125048317Y-111092974D01*
X121345027Y-111092974D01*
X121343735Y-111074018D01*
X121343734Y-111074012D01*
X121343443Y-111069741D01*
X121339657Y-111051456D01*
X121284299Y-110784143D01*
X121283430Y-110779946D01*
X121184641Y-110500976D01*
X121175955Y-110484146D01*
X121050872Y-110241802D01*
X121050872Y-110241801D01*
X121048907Y-110237995D01*
X121042955Y-110229525D01*
X120881204Y-109999378D01*
X120881203Y-109999377D01*
X120878737Y-109995868D01*
X120704279Y-109808128D01*
X120680199Y-109782215D01*
X120680198Y-109782214D01*
X120677282Y-109779076D01*
X120593402Y-109710421D01*
X120451583Y-109594344D01*
X120451580Y-109594342D01*
X120448268Y-109591631D01*
X120444619Y-109589395D01*
X120441508Y-109587184D01*
X120397569Y-109531418D01*
X120388500Y-109484480D01*
X120388500Y-108429625D01*
X120408502Y-108361504D01*
X120458471Y-108316768D01*
X120461382Y-108315323D01*
X120465336Y-108313685D01*
X120720853Y-108164373D01*
X120953742Y-107981765D01*
X121003826Y-107930083D01*
X121087238Y-107844008D01*
X121141085Y-107788442D01*
X123439303Y-107788442D01*
X123448017Y-107799962D01*
X123549394Y-107874296D01*
X123557293Y-107879232D01*
X123782901Y-107997930D01*
X123791450Y-108001647D01*
X124032113Y-108085690D01*
X124041122Y-108088104D01*
X124291572Y-108135654D01*
X124300827Y-108136708D01*
X124555557Y-108146717D01*
X124564871Y-108146391D01*
X124818270Y-108118640D01*
X124827447Y-108116939D01*
X125073960Y-108052037D01*
X125082780Y-108049000D01*
X125316997Y-107948373D01*
X125325269Y-107944066D01*
X125542036Y-107809927D01*
X125549579Y-107804447D01*
X125551272Y-107803014D01*
X125559710Y-107790211D01*
X125553645Y-107779855D01*
X124510812Y-106737022D01*
X124496868Y-106729408D01*
X124495035Y-106729539D01*
X124488420Y-106733790D01*
X123445961Y-107776249D01*
X123439303Y-107788442D01*
X121141085Y-107788442D01*
X121159693Y-107769240D01*
X121162226Y-107765792D01*
X121162230Y-107765787D01*
X121317320Y-107554657D01*
X121334896Y-107530730D01*
X121337644Y-107525670D01*
X121474061Y-107274421D01*
X121476109Y-107270649D01*
X121555470Y-107060625D01*
X121579202Y-106997819D01*
X121579203Y-106997816D01*
X121580717Y-106993809D01*
X121616656Y-106836894D01*
X121645830Y-106709514D01*
X121645831Y-106709509D01*
X121646787Y-106705334D01*
X121673095Y-106410562D01*
X121673572Y-106365000D01*
X121670709Y-106322999D01*
X122715849Y-106322999D01*
X122728080Y-106577619D01*
X122729217Y-106586879D01*
X122778947Y-106836894D01*
X122781441Y-106845887D01*
X122867578Y-107085797D01*
X122871378Y-107094332D01*
X122992031Y-107318877D01*
X122997045Y-107326748D01*
X123063154Y-107415279D01*
X123074414Y-107423729D01*
X123086832Y-107416958D01*
X124125978Y-106377812D01*
X124132356Y-106366132D01*
X124862408Y-106366132D01*
X124862539Y-106367965D01*
X124866790Y-106374580D01*
X125912386Y-107420176D01*
X125924766Y-107426936D01*
X125933107Y-107420692D01*
X126062391Y-107219697D01*
X126066838Y-107211506D01*
X126171536Y-106979085D01*
X126174731Y-106970307D01*
X126243923Y-106724968D01*
X126245781Y-106715839D01*
X126278144Y-106461444D01*
X126278625Y-106455158D01*
X126280903Y-106368160D01*
X126280752Y-106361851D01*
X126261747Y-106106110D01*
X126260370Y-106096904D01*
X126204109Y-105848262D01*
X126201385Y-105839351D01*
X126108990Y-105601758D01*
X126104979Y-105593349D01*
X126020827Y-105446114D01*
X128481275Y-105446114D01*
X128483325Y-105463830D01*
X128485285Y-105473727D01*
X128548604Y-105697494D01*
X128552116Y-105706938D01*
X128650399Y-105917705D01*
X128655378Y-105926471D01*
X128786087Y-106118802D01*
X128792419Y-106126677D01*
X128952186Y-106295626D01*
X128959695Y-106302387D01*
X129144426Y-106443625D01*
X129152905Y-106449089D01*
X129357847Y-106558978D01*
X129367099Y-106563020D01*
X129586971Y-106638727D01*
X129596743Y-106641236D01*
X129826971Y-106681004D01*
X129834843Y-106681859D01*
X129858551Y-106682936D01*
X129861384Y-106683000D01*
X129965885Y-106683000D01*
X129981124Y-106678525D01*
X129982329Y-106677135D01*
X129984000Y-106669452D01*
X129984000Y-105447115D01*
X129979525Y-105431876D01*
X129978135Y-105430671D01*
X129970452Y-105429000D01*
X128497410Y-105429000D01*
X128483324Y-105433136D01*
X128481275Y-105446114D01*
X126020827Y-105446114D01*
X125978482Y-105372027D01*
X125973269Y-105364298D01*
X125933633Y-105314019D01*
X125921709Y-105305549D01*
X125910174Y-105312036D01*
X124870022Y-106352188D01*
X124862408Y-106366132D01*
X124132356Y-106366132D01*
X124133592Y-106363868D01*
X124133461Y-106362035D01*
X124129210Y-106355420D01*
X123085119Y-105311329D01*
X123071811Y-105304062D01*
X123061772Y-105311184D01*
X123049433Y-105326020D01*
X123044018Y-105333612D01*
X122911776Y-105551540D01*
X122907538Y-105559857D01*
X122808961Y-105794935D01*
X122806000Y-105803785D01*
X122743255Y-106050849D01*
X122741633Y-106060046D01*
X122716094Y-106313673D01*
X122715849Y-106322999D01*
X121670709Y-106322999D01*
X121669803Y-106309717D01*
X121653735Y-106074018D01*
X121653734Y-106074012D01*
X121653443Y-106069741D01*
X121649721Y-106051767D01*
X121639365Y-106001757D01*
X121645138Y-105930996D01*
X121673652Y-105887112D01*
X122621407Y-104939357D01*
X123436770Y-104939357D01*
X123441343Y-104949133D01*
X124485188Y-105992978D01*
X124499132Y-106000592D01*
X124500965Y-106000461D01*
X124507580Y-105996210D01*
X125550790Y-104953000D01*
X125557174Y-104941310D01*
X125547762Y-104929199D01*
X125406776Y-104831392D01*
X125398741Y-104826659D01*
X125170106Y-104713909D01*
X125161473Y-104710421D01*
X124918675Y-104632701D01*
X124909624Y-104630528D01*
X124658009Y-104589550D01*
X124648720Y-104588738D01*
X124393828Y-104585401D01*
X124384517Y-104585971D01*
X124131927Y-104620347D01*
X124122808Y-104622285D01*
X123878084Y-104693616D01*
X123869331Y-104696888D01*
X123637837Y-104803608D01*
X123629682Y-104808128D01*
X123445907Y-104928616D01*
X123436770Y-104939357D01*
X122621407Y-104939357D01*
X123688359Y-103872405D01*
X123750671Y-103838379D01*
X123777454Y-103835500D01*
X128433884Y-103835500D01*
X128502005Y-103855502D01*
X128532286Y-103882805D01*
X128566956Y-103926157D01*
X128566963Y-103926165D01*
X128569816Y-103929732D01*
X128743839Y-104092295D01*
X128749085Y-104097196D01*
X128785211Y-104158314D01*
X128782559Y-104229261D01*
X128760437Y-104269247D01*
X128728891Y-104307652D01*
X128723135Y-104315933D01*
X128606159Y-104516919D01*
X128601797Y-104526024D01*
X128518463Y-104743115D01*
X128515612Y-104752804D01*
X128484179Y-104903264D01*
X128485302Y-104917325D01*
X128495410Y-104921000D01*
X130366000Y-104921000D01*
X130434121Y-104941002D01*
X130480614Y-104994658D01*
X130492000Y-105047000D01*
X130492000Y-106664885D01*
X130496475Y-106680124D01*
X130497865Y-106681329D01*
X130505548Y-106683000D01*
X130566456Y-106683000D01*
X130571488Y-106682798D01*
X130744843Y-106668850D01*
X130754796Y-106667238D01*
X130980633Y-106611767D01*
X130990203Y-106608584D01*
X131204265Y-106517720D01*
X131213207Y-106513045D01*
X131409987Y-106389126D01*
X131418060Y-106383086D01*
X131588175Y-106233110D01*
X131652501Y-106203065D01*
X131722859Y-106212566D01*
X131776910Y-106258598D01*
X131797500Y-106327624D01*
X131797500Y-109091634D01*
X131777498Y-109159755D01*
X131723842Y-109206248D01*
X131687948Y-109216556D01*
X131567982Y-109232349D01*
X131282527Y-109310441D01*
X131278577Y-109312126D01*
X131014253Y-109424869D01*
X131014246Y-109424873D01*
X131010311Y-109426551D01*
X130926953Y-109476440D01*
X130760054Y-109576327D01*
X130760050Y-109576330D01*
X130756372Y-109578531D01*
X130525408Y-109763568D01*
X130522464Y-109766670D01*
X130522460Y-109766674D01*
X130324643Y-109975129D01*
X130321693Y-109978238D01*
X130148997Y-110218570D01*
X130010516Y-110480115D01*
X129908812Y-110758035D01*
X129845767Y-111047186D01*
X129822547Y-111342218D01*
X129839583Y-111637671D01*
X129840408Y-111641876D01*
X129840409Y-111641884D01*
X129876135Y-111823976D01*
X129896559Y-111928079D01*
X129897946Y-111932130D01*
X129988246Y-112195876D01*
X129992420Y-112208068D01*
X130125394Y-112472456D01*
X130184859Y-112558978D01*
X130288942Y-112710421D01*
X130293018Y-112716352D01*
X130492193Y-112935241D01*
X130495482Y-112937991D01*
X130715939Y-113122323D01*
X130715944Y-113122327D01*
X130719231Y-113125075D01*
X130738458Y-113137136D01*
X130785534Y-113190279D01*
X130797500Y-113243872D01*
X130797500Y-114510271D01*
X130797230Y-114518512D01*
X130792770Y-114586560D01*
X130793449Y-114592295D01*
X130803699Y-114678895D01*
X130804040Y-114682149D01*
X130812546Y-114774711D01*
X130814116Y-114780278D01*
X130814117Y-114780282D01*
X130814152Y-114780406D01*
X130818008Y-114799789D01*
X130818704Y-114805667D01*
X130831193Y-114845887D01*
X130846272Y-114894451D01*
X130847186Y-114897535D01*
X130872435Y-114987064D01*
X130874988Y-114992241D01*
X130874992Y-114992251D01*
X130875054Y-114992376D01*
X130882379Y-115010737D01*
X130884131Y-115016379D01*
X130886821Y-115021491D01*
X130927403Y-115098625D01*
X130928896Y-115101556D01*
X130970020Y-115184947D01*
X130973564Y-115189693D01*
X130984108Y-115206405D01*
X130986863Y-115211641D01*
X131044417Y-115284648D01*
X131046413Y-115287250D01*
X131102033Y-115361733D01*
X131159959Y-115415279D01*
X131165518Y-115420418D01*
X131169084Y-115423848D01*
X132631551Y-116886315D01*
X132665577Y-116948627D01*
X132665564Y-117002251D01*
X132655767Y-117047186D01*
X132632547Y-117342218D01*
X132649583Y-117637671D01*
X132650408Y-117641876D01*
X132650409Y-117641884D01*
X132688669Y-117836894D01*
X132706559Y-117928079D01*
X132707946Y-117932130D01*
X132760558Y-118085797D01*
X132802420Y-118208068D01*
X132935394Y-118472456D01*
X133103018Y-118716352D01*
X133302193Y-118935241D01*
X133305482Y-118937991D01*
X133525939Y-119122323D01*
X133525944Y-119122327D01*
X133529231Y-119125075D01*
X133587653Y-119161723D01*
X133776292Y-119280056D01*
X133776296Y-119280058D01*
X133779932Y-119282339D01*
X133783842Y-119284104D01*
X133783843Y-119284105D01*
X134045744Y-119402358D01*
X134045748Y-119402360D01*
X134049656Y-119404124D01*
X134053775Y-119405344D01*
X134329301Y-119486959D01*
X134329305Y-119486960D01*
X134333414Y-119488177D01*
X134337648Y-119488825D01*
X134337653Y-119488826D01*
X134596964Y-119528506D01*
X134625953Y-119532942D01*
X134776665Y-119535309D01*
X134917570Y-119537523D01*
X134917576Y-119537523D01*
X134921861Y-119537590D01*
X135215662Y-119502037D01*
X135501919Y-119426938D01*
X135775336Y-119313685D01*
X135825957Y-119284105D01*
X136027145Y-119166540D01*
X136027147Y-119166538D01*
X136030853Y-119164373D01*
X136263742Y-118981765D01*
X136469693Y-118769240D01*
X136472226Y-118765792D01*
X136472230Y-118765787D01*
X136642358Y-118534185D01*
X136644896Y-118530730D01*
X136786109Y-118270649D01*
X136890717Y-117993809D01*
X136956787Y-117705334D01*
X136983095Y-117410562D01*
X136983572Y-117365000D01*
X136983403Y-117362519D01*
X136963735Y-117074018D01*
X136963734Y-117074012D01*
X136963443Y-117069741D01*
X136959657Y-117051456D01*
X136913097Y-116826629D01*
X136903430Y-116779946D01*
X136804641Y-116500976D01*
X136792452Y-116477359D01*
X136670872Y-116241802D01*
X136670872Y-116241801D01*
X136668907Y-116237995D01*
X136655287Y-116218615D01*
X136501204Y-115999378D01*
X136501203Y-115999377D01*
X136498737Y-115995868D01*
X136297282Y-115779076D01*
X136296982Y-115778831D01*
X136261489Y-115718432D01*
X136264322Y-115647492D01*
X136305058Y-115589345D01*
X136370764Y-115562452D01*
X136401785Y-115563090D01*
X136421152Y-115565898D01*
X136442485Y-115568991D01*
X136528869Y-115565597D01*
X136533816Y-115565500D01*
X147123049Y-115565500D01*
X147191170Y-115585502D01*
X147226889Y-115620133D01*
X147288942Y-115710421D01*
X147293018Y-115716352D01*
X147492193Y-115935241D01*
X147495482Y-115937991D01*
X147715939Y-116122323D01*
X147715944Y-116122327D01*
X147719231Y-116125075D01*
X147738458Y-116137136D01*
X147785534Y-116190279D01*
X147797500Y-116243872D01*
X147797500Y-121878901D01*
X147777498Y-121947022D01*
X147723842Y-121993515D01*
X147653568Y-122003619D01*
X147597353Y-121980773D01*
X147564984Y-121957213D01*
X147320899Y-121828794D01*
X147060832Y-121736955D01*
X146961126Y-121717303D01*
X146794704Y-121684501D01*
X146794698Y-121684500D01*
X146790232Y-121683620D01*
X146785678Y-121683393D01*
X146785676Y-121683393D01*
X146519336Y-121670133D01*
X146519330Y-121670133D01*
X146514767Y-121669906D01*
X146240208Y-121696102D01*
X146235774Y-121697187D01*
X146235768Y-121697188D01*
X145976744Y-121760571D01*
X145972306Y-121761657D01*
X145716674Y-121865199D01*
X145712744Y-121867500D01*
X145712738Y-121867503D01*
X145482597Y-122002255D01*
X145482590Y-122002260D01*
X145478665Y-122004558D01*
X145475105Y-122007405D01*
X145368584Y-122092592D01*
X145302891Y-122119516D01*
X145233070Y-122106650D01*
X145215739Y-122096060D01*
X145210975Y-122092592D01*
X145093949Y-122007411D01*
X145028676Y-121959900D01*
X145028670Y-121959896D01*
X145024984Y-121957213D01*
X144780899Y-121828794D01*
X144520832Y-121736955D01*
X144421126Y-121717303D01*
X144254704Y-121684501D01*
X144254698Y-121684500D01*
X144250232Y-121683620D01*
X144245678Y-121683393D01*
X144245676Y-121683393D01*
X143979336Y-121670133D01*
X143979330Y-121670133D01*
X143974767Y-121669906D01*
X143700208Y-121696102D01*
X143695774Y-121697187D01*
X143695768Y-121697188D01*
X143436744Y-121760571D01*
X143432306Y-121761657D01*
X143176674Y-121865199D01*
X143172744Y-121867500D01*
X143172738Y-121867503D01*
X142942597Y-122002255D01*
X142942590Y-122002260D01*
X142938665Y-122004558D01*
X142935105Y-122007405D01*
X142828584Y-122092592D01*
X142762891Y-122119516D01*
X142693070Y-122106650D01*
X142675739Y-122096060D01*
X142670975Y-122092592D01*
X142553949Y-122007411D01*
X142488676Y-121959900D01*
X142488670Y-121959896D01*
X142484984Y-121957213D01*
X142240899Y-121828794D01*
X141980832Y-121736955D01*
X141881126Y-121717303D01*
X141714704Y-121684501D01*
X141714698Y-121684500D01*
X141710232Y-121683620D01*
X141705678Y-121683393D01*
X141705676Y-121683393D01*
X141439336Y-121670133D01*
X141439330Y-121670133D01*
X141434767Y-121669906D01*
X141160208Y-121696102D01*
X141155774Y-121697187D01*
X141155768Y-121697188D01*
X140896744Y-121760571D01*
X140892306Y-121761657D01*
X140636674Y-121865199D01*
X140632744Y-121867500D01*
X140632738Y-121867503D01*
X140402597Y-122002255D01*
X140402590Y-122002260D01*
X140398665Y-122004558D01*
X140395105Y-122007405D01*
X140288584Y-122092592D01*
X140222891Y-122119516D01*
X140153070Y-122106650D01*
X140135739Y-122096060D01*
X140130975Y-122092592D01*
X140013949Y-122007411D01*
X139948676Y-121959900D01*
X139948670Y-121959896D01*
X139944984Y-121957213D01*
X139700899Y-121828794D01*
X139440832Y-121736955D01*
X139341126Y-121717303D01*
X139174704Y-121684501D01*
X139174698Y-121684500D01*
X139170232Y-121683620D01*
X139165678Y-121683393D01*
X139165676Y-121683393D01*
X138899336Y-121670133D01*
X138899330Y-121670133D01*
X138894767Y-121669906D01*
X138620208Y-121696102D01*
X138615774Y-121697187D01*
X138615768Y-121697188D01*
X138356744Y-121760571D01*
X138352306Y-121761657D01*
X138096674Y-121865199D01*
X138092744Y-121867500D01*
X138092738Y-121867503D01*
X137862597Y-122002255D01*
X137862590Y-122002260D01*
X137858665Y-122004558D01*
X137855105Y-122007405D01*
X137665401Y-122159116D01*
X137643268Y-122176816D01*
X137640147Y-122180157D01*
X137484917Y-122346330D01*
X137454992Y-122378364D01*
X137297784Y-122604979D01*
X137295756Y-122609055D01*
X137295755Y-122609057D01*
X137187517Y-122826624D01*
X137174935Y-122851914D01*
X137089020Y-123113998D01*
X137088240Y-123118489D01*
X137088240Y-123118490D01*
X137055949Y-123304468D01*
X137041838Y-123385738D01*
X137041647Y-123389575D01*
X137039093Y-123440887D01*
X137037500Y-123472876D01*
X137037500Y-124145070D01*
X137037665Y-124147338D01*
X137037665Y-124147350D01*
X137045870Y-124260425D01*
X137052375Y-124350083D01*
X137053359Y-124354538D01*
X137053359Y-124354541D01*
X137094379Y-124540335D01*
X137111836Y-124619403D01*
X137209551Y-124877319D01*
X137211765Y-124881306D01*
X137211766Y-124881307D01*
X137323969Y-125083311D01*
X137343475Y-125118428D01*
X137346247Y-125122060D01*
X137508029Y-125334044D01*
X137510802Y-125337678D01*
X137514068Y-125340871D01*
X137514070Y-125340873D01*
X137704758Y-125527283D01*
X137704763Y-125527287D01*
X137708026Y-125530477D01*
X137711718Y-125533164D01*
X137711720Y-125533166D01*
X137862060Y-125642595D01*
X137931016Y-125692787D01*
X138175101Y-125821206D01*
X138435168Y-125913045D01*
X138534874Y-125932697D01*
X138701296Y-125965499D01*
X138701302Y-125965500D01*
X138705768Y-125966380D01*
X138710322Y-125966607D01*
X138710324Y-125966607D01*
X138976664Y-125979867D01*
X138976670Y-125979867D01*
X138981233Y-125980094D01*
X139255792Y-125953898D01*
X139260226Y-125952813D01*
X139260232Y-125952812D01*
X139519256Y-125889429D01*
X139523694Y-125888343D01*
X139779326Y-125784801D01*
X139783256Y-125782500D01*
X139783262Y-125782497D01*
X140013403Y-125647745D01*
X140013410Y-125647740D01*
X140017335Y-125645442D01*
X140127416Y-125557408D01*
X140193109Y-125530484D01*
X140262930Y-125543350D01*
X140280259Y-125553939D01*
X140288140Y-125559675D01*
X140402060Y-125642595D01*
X140471016Y-125692787D01*
X140715101Y-125821206D01*
X140975168Y-125913045D01*
X141074874Y-125932697D01*
X141241296Y-125965499D01*
X141241302Y-125965500D01*
X141245768Y-125966380D01*
X141250322Y-125966607D01*
X141250324Y-125966607D01*
X141516664Y-125979867D01*
X141516670Y-125979867D01*
X141521233Y-125980094D01*
X141795792Y-125953898D01*
X141800226Y-125952813D01*
X141800232Y-125952812D01*
X142059256Y-125889429D01*
X142063694Y-125888343D01*
X142319326Y-125784801D01*
X142323256Y-125782500D01*
X142323262Y-125782497D01*
X142553403Y-125647745D01*
X142553410Y-125647740D01*
X142557335Y-125645442D01*
X142667416Y-125557408D01*
X142733109Y-125530484D01*
X142802930Y-125543350D01*
X142820259Y-125553939D01*
X142828140Y-125559675D01*
X142942060Y-125642595D01*
X143011016Y-125692787D01*
X143255101Y-125821206D01*
X143515168Y-125913045D01*
X143614874Y-125932697D01*
X143781296Y-125965499D01*
X143781302Y-125965500D01*
X143785768Y-125966380D01*
X143790322Y-125966607D01*
X143790324Y-125966607D01*
X144056664Y-125979867D01*
X144056670Y-125979867D01*
X144061233Y-125980094D01*
X144335792Y-125953898D01*
X144340226Y-125952813D01*
X144340232Y-125952812D01*
X144599256Y-125889429D01*
X144603694Y-125888343D01*
X144859326Y-125784801D01*
X144863256Y-125782500D01*
X144863262Y-125782497D01*
X145093403Y-125647745D01*
X145093410Y-125647740D01*
X145097335Y-125645442D01*
X145207416Y-125557408D01*
X145273109Y-125530484D01*
X145342930Y-125543350D01*
X145360259Y-125553939D01*
X145368140Y-125559675D01*
X145482060Y-125642595D01*
X145551016Y-125692787D01*
X145795101Y-125821206D01*
X146055168Y-125913045D01*
X146154874Y-125932697D01*
X146321296Y-125965499D01*
X146321302Y-125965500D01*
X146325768Y-125966380D01*
X146330322Y-125966607D01*
X146330324Y-125966607D01*
X146596664Y-125979867D01*
X146596670Y-125979867D01*
X146601233Y-125980094D01*
X146875792Y-125953898D01*
X146880226Y-125952813D01*
X146880232Y-125952812D01*
X147139256Y-125889429D01*
X147143694Y-125888343D01*
X147399326Y-125784801D01*
X147403256Y-125782500D01*
X147403262Y-125782497D01*
X147633403Y-125647745D01*
X147633410Y-125647740D01*
X147637335Y-125645442D01*
X147747416Y-125557408D01*
X147813109Y-125530484D01*
X147882930Y-125543350D01*
X147900259Y-125553939D01*
X147908140Y-125559675D01*
X148022060Y-125642595D01*
X148091016Y-125692787D01*
X148335101Y-125821206D01*
X148595168Y-125913045D01*
X148694874Y-125932697D01*
X148861296Y-125965499D01*
X148861302Y-125965500D01*
X148865768Y-125966380D01*
X148870322Y-125966607D01*
X148870324Y-125966607D01*
X149136664Y-125979867D01*
X149136670Y-125979867D01*
X149141233Y-125980094D01*
X149415792Y-125953898D01*
X149420226Y-125952813D01*
X149420232Y-125952812D01*
X149679256Y-125889429D01*
X149683694Y-125888343D01*
X149939326Y-125784801D01*
X149943256Y-125782500D01*
X149943262Y-125782497D01*
X150173403Y-125647745D01*
X150173410Y-125647740D01*
X150177335Y-125645442D01*
X150202401Y-125625396D01*
X150389166Y-125476036D01*
X150389167Y-125476035D01*
X150392732Y-125473184D01*
X150560196Y-125293915D01*
X150621314Y-125257789D01*
X150692261Y-125260441D01*
X150732247Y-125282563D01*
X150770652Y-125314109D01*
X150778933Y-125319865D01*
X150979919Y-125436841D01*
X150989024Y-125441203D01*
X151206115Y-125524537D01*
X151215804Y-125527388D01*
X151366264Y-125558821D01*
X151380325Y-125557698D01*
X151384000Y-125547590D01*
X151384000Y-125545590D01*
X151892000Y-125545590D01*
X151896136Y-125559676D01*
X151909114Y-125561725D01*
X151926830Y-125559675D01*
X151936727Y-125557715D01*
X152160494Y-125494396D01*
X152169938Y-125490884D01*
X152380705Y-125392601D01*
X152389471Y-125387622D01*
X152581802Y-125256913D01*
X152589677Y-125250581D01*
X152758626Y-125090814D01*
X152765382Y-125083311D01*
X152807438Y-125028304D01*
X152864703Y-124986337D01*
X152935567Y-124981992D01*
X153002048Y-125021509D01*
X153123703Y-125159500D01*
X153130956Y-125166504D01*
X153310654Y-125314110D01*
X153318936Y-125319866D01*
X153519919Y-125436841D01*
X153529024Y-125441203D01*
X153746115Y-125524537D01*
X153755804Y-125527388D01*
X153906264Y-125558821D01*
X153920325Y-125557698D01*
X153924000Y-125547590D01*
X153924000Y-125545590D01*
X154432000Y-125545590D01*
X154436136Y-125559676D01*
X154449114Y-125561725D01*
X154466830Y-125559675D01*
X154476727Y-125557715D01*
X154700494Y-125494396D01*
X154709938Y-125490884D01*
X154920705Y-125392601D01*
X154929470Y-125387622D01*
X155093862Y-125275901D01*
X155161447Y-125254155D01*
X155230059Y-125272399D01*
X155264847Y-125303670D01*
X155288028Y-125334044D01*
X155288030Y-125334046D01*
X155290802Y-125337678D01*
X155294068Y-125340871D01*
X155294070Y-125340873D01*
X155484758Y-125527283D01*
X155484763Y-125527287D01*
X155488026Y-125530477D01*
X155491718Y-125533164D01*
X155491720Y-125533166D01*
X155642060Y-125642595D01*
X155711016Y-125692787D01*
X155955101Y-125821206D01*
X156215168Y-125913045D01*
X156314874Y-125932697D01*
X156481296Y-125965499D01*
X156481302Y-125965500D01*
X156485768Y-125966380D01*
X156490322Y-125966607D01*
X156490324Y-125966607D01*
X156756664Y-125979867D01*
X156756670Y-125979867D01*
X156761233Y-125980094D01*
X157035792Y-125953898D01*
X157040226Y-125952813D01*
X157040232Y-125952812D01*
X157299256Y-125889429D01*
X157303694Y-125888343D01*
X157559326Y-125784801D01*
X157563256Y-125782500D01*
X157563262Y-125782497D01*
X157793403Y-125647745D01*
X157793410Y-125647740D01*
X157797335Y-125645442D01*
X157822401Y-125625396D01*
X158009166Y-125476036D01*
X158009167Y-125476035D01*
X158012732Y-125473184D01*
X158161332Y-125314109D01*
X158197892Y-125274972D01*
X158197894Y-125274969D01*
X158201008Y-125271636D01*
X158358216Y-125045021D01*
X158481065Y-124798086D01*
X158566980Y-124536002D01*
X158589011Y-124409116D01*
X158613506Y-124268043D01*
X158613507Y-124268035D01*
X158614162Y-124264262D01*
X158618500Y-124177124D01*
X158618500Y-123504930D01*
X158618139Y-123499942D01*
X158603955Y-123304468D01*
X158603625Y-123299917D01*
X158570691Y-123150744D01*
X158545148Y-123035053D01*
X158545147Y-123035050D01*
X158544164Y-123030597D01*
X158446449Y-122772681D01*
X158312525Y-122531572D01*
X158158792Y-122330134D01*
X158147970Y-122315954D01*
X158147969Y-122315953D01*
X158145198Y-122312322D01*
X158094108Y-122262378D01*
X157951242Y-122122717D01*
X157951237Y-122122713D01*
X157947974Y-122119523D01*
X157933524Y-122109005D01*
X157728676Y-121959900D01*
X157728670Y-121959896D01*
X157724984Y-121957213D01*
X157480899Y-121828794D01*
X157220832Y-121736955D01*
X157121126Y-121717303D01*
X156954704Y-121684501D01*
X156954698Y-121684500D01*
X156950232Y-121683620D01*
X156945678Y-121683393D01*
X156945676Y-121683393D01*
X156679336Y-121670133D01*
X156679330Y-121670133D01*
X156674767Y-121669906D01*
X156400208Y-121696102D01*
X156395774Y-121697187D01*
X156395768Y-121697188D01*
X156136744Y-121760571D01*
X156132306Y-121761657D01*
X155876674Y-121865199D01*
X155872744Y-121867500D01*
X155872738Y-121867503D01*
X155642597Y-122002255D01*
X155642590Y-122002260D01*
X155638665Y-122004558D01*
X155635105Y-122007405D01*
X155445401Y-122159116D01*
X155423268Y-122176816D01*
X155420147Y-122180157D01*
X155255804Y-122356085D01*
X155194686Y-122392211D01*
X155123739Y-122389559D01*
X155083753Y-122367437D01*
X155045348Y-122335891D01*
X155037067Y-122330135D01*
X154836081Y-122213159D01*
X154826976Y-122208797D01*
X154609885Y-122125463D01*
X154600196Y-122122612D01*
X154449736Y-122091179D01*
X154435675Y-122092302D01*
X154432000Y-122102410D01*
X154432000Y-125545590D01*
X153924000Y-125545590D01*
X153924000Y-124097115D01*
X153919525Y-124081876D01*
X153918135Y-124080671D01*
X153910452Y-124079000D01*
X151910115Y-124079000D01*
X151894876Y-124083475D01*
X151893671Y-124084865D01*
X151892000Y-124092548D01*
X151892000Y-125545590D01*
X151384000Y-125545590D01*
X151384000Y-123552885D01*
X151892000Y-123552885D01*
X151896475Y-123568124D01*
X151897865Y-123569329D01*
X151905548Y-123571000D01*
X153905885Y-123571000D01*
X153921124Y-123566525D01*
X153922329Y-123565135D01*
X153924000Y-123557452D01*
X153924000Y-122104410D01*
X153919864Y-122090324D01*
X153906886Y-122088275D01*
X153889170Y-122090325D01*
X153879273Y-122092285D01*
X153655506Y-122155604D01*
X153646062Y-122159116D01*
X153435295Y-122257399D01*
X153426529Y-122262378D01*
X153234198Y-122393087D01*
X153226323Y-122399419D01*
X153057374Y-122559186D01*
X153050618Y-122566689D01*
X153008562Y-122621696D01*
X152951297Y-122663663D01*
X152880433Y-122668008D01*
X152813952Y-122628491D01*
X152692297Y-122490500D01*
X152685044Y-122483496D01*
X152505346Y-122335890D01*
X152497064Y-122330134D01*
X152296081Y-122213159D01*
X152286976Y-122208797D01*
X152069885Y-122125463D01*
X152060196Y-122122612D01*
X151909736Y-122091179D01*
X151895675Y-122092302D01*
X151892000Y-122102410D01*
X151892000Y-123552885D01*
X151384000Y-123552885D01*
X151384000Y-122104410D01*
X151379864Y-122090324D01*
X151366886Y-122088275D01*
X151349170Y-122090325D01*
X151339273Y-122092285D01*
X151115506Y-122155604D01*
X151106062Y-122159116D01*
X150895295Y-122257399D01*
X150886530Y-122262378D01*
X150722138Y-122374099D01*
X150654553Y-122395845D01*
X150585941Y-122377601D01*
X150551153Y-122346330D01*
X150527972Y-122315956D01*
X150527968Y-122315951D01*
X150525198Y-122312322D01*
X150474108Y-122262378D01*
X150331242Y-122122717D01*
X150331237Y-122122713D01*
X150327974Y-122119523D01*
X150310289Y-122106650D01*
X150267964Y-122075843D01*
X150250350Y-122063021D01*
X150207045Y-122006762D01*
X150198500Y-121961151D01*
X150198500Y-116243218D01*
X150218502Y-116175097D01*
X150246754Y-116144064D01*
X150252097Y-116139875D01*
X150453742Y-115981765D01*
X150459937Y-115975373D01*
X150620090Y-115810107D01*
X150641085Y-115788442D01*
X152939303Y-115788442D01*
X152948017Y-115799962D01*
X153049394Y-115874296D01*
X153057293Y-115879232D01*
X153282901Y-115997930D01*
X153291450Y-116001647D01*
X153532113Y-116085690D01*
X153541122Y-116088104D01*
X153791572Y-116135654D01*
X153800827Y-116136708D01*
X154055557Y-116146717D01*
X154064871Y-116146391D01*
X154318270Y-116118640D01*
X154327447Y-116116939D01*
X154573960Y-116052037D01*
X154582780Y-116049000D01*
X154816997Y-115948373D01*
X154825269Y-115944066D01*
X155042036Y-115809927D01*
X155049579Y-115804447D01*
X155051272Y-115803014D01*
X155059710Y-115790211D01*
X155053645Y-115779855D01*
X154010812Y-114737022D01*
X153996868Y-114729408D01*
X153995035Y-114729539D01*
X153988420Y-114733790D01*
X152945961Y-115776249D01*
X152939303Y-115788442D01*
X150641085Y-115788442D01*
X150659693Y-115769240D01*
X150662226Y-115765792D01*
X150662230Y-115765787D01*
X150832358Y-115534185D01*
X150834896Y-115530730D01*
X150867057Y-115471498D01*
X150974061Y-115274421D01*
X150976109Y-115270649D01*
X151080717Y-114993809D01*
X151125154Y-114799789D01*
X151145830Y-114709514D01*
X151145831Y-114709509D01*
X151146787Y-114705334D01*
X151173095Y-114410562D01*
X151173572Y-114365000D01*
X151170709Y-114322999D01*
X152215849Y-114322999D01*
X152228080Y-114577619D01*
X152229217Y-114586879D01*
X152278947Y-114836894D01*
X152281441Y-114845887D01*
X152367578Y-115085797D01*
X152371378Y-115094332D01*
X152492031Y-115318877D01*
X152497045Y-115326748D01*
X152563154Y-115415279D01*
X152574414Y-115423729D01*
X152586832Y-115416958D01*
X153625978Y-114377812D01*
X153632356Y-114366132D01*
X154362408Y-114366132D01*
X154362539Y-114367965D01*
X154366790Y-114374580D01*
X155412386Y-115420176D01*
X155424766Y-115426936D01*
X155433107Y-115420692D01*
X155562391Y-115219697D01*
X155566838Y-115211506D01*
X155671536Y-114979085D01*
X155674731Y-114970307D01*
X155743923Y-114724968D01*
X155745781Y-114715839D01*
X155778144Y-114461444D01*
X155778625Y-114455158D01*
X155780903Y-114368160D01*
X155780752Y-114361851D01*
X155761747Y-114106110D01*
X155760370Y-114096904D01*
X155704109Y-113848262D01*
X155701385Y-113839351D01*
X155608990Y-113601758D01*
X155604979Y-113593349D01*
X155478482Y-113372027D01*
X155473269Y-113364298D01*
X155433633Y-113314019D01*
X155421709Y-113305549D01*
X155410174Y-113312036D01*
X154370022Y-114352188D01*
X154362408Y-114366132D01*
X153632356Y-114366132D01*
X153633592Y-114363868D01*
X153633461Y-114362035D01*
X153629210Y-114355420D01*
X152585119Y-113311329D01*
X152571811Y-113304062D01*
X152561772Y-113311184D01*
X152549433Y-113326020D01*
X152544018Y-113333612D01*
X152411776Y-113551540D01*
X152407538Y-113559857D01*
X152308961Y-113794935D01*
X152306000Y-113803785D01*
X152243255Y-114050849D01*
X152241633Y-114060046D01*
X152216094Y-114313673D01*
X152215849Y-114322999D01*
X151170709Y-114322999D01*
X151165427Y-114245520D01*
X151153735Y-114074018D01*
X151153734Y-114074012D01*
X151153443Y-114069741D01*
X151144423Y-114026182D01*
X151101903Y-113820863D01*
X151093430Y-113779946D01*
X150994641Y-113500976D01*
X150987407Y-113486959D01*
X150860872Y-113241802D01*
X150860872Y-113241801D01*
X150858907Y-113237995D01*
X150814702Y-113175097D01*
X150691204Y-112999378D01*
X150691203Y-112999377D01*
X150688737Y-112995868D01*
X150636224Y-112939357D01*
X152936770Y-112939357D01*
X152941343Y-112949133D01*
X153985188Y-113992978D01*
X153999132Y-114000592D01*
X154000965Y-114000461D01*
X154007580Y-113996210D01*
X155050790Y-112953000D01*
X155057174Y-112941310D01*
X155047762Y-112929199D01*
X154906776Y-112831392D01*
X154898741Y-112826659D01*
X154670106Y-112713909D01*
X154661473Y-112710421D01*
X154418675Y-112632701D01*
X154409624Y-112630528D01*
X154158009Y-112589550D01*
X154148720Y-112588738D01*
X153893828Y-112585401D01*
X153884517Y-112585971D01*
X153631927Y-112620347D01*
X153622808Y-112622285D01*
X153378084Y-112693616D01*
X153369331Y-112696888D01*
X153137837Y-112803608D01*
X153129682Y-112808128D01*
X152945907Y-112928616D01*
X152936770Y-112939357D01*
X150636224Y-112939357D01*
X150510859Y-112804448D01*
X150490199Y-112782215D01*
X150490198Y-112782214D01*
X150487282Y-112779076D01*
X150479026Y-112772318D01*
X150282869Y-112611767D01*
X150258268Y-112591631D01*
X150204983Y-112558978D01*
X150009584Y-112439236D01*
X150009576Y-112439232D01*
X150005934Y-112437000D01*
X150002017Y-112435281D01*
X150002014Y-112435279D01*
X149882616Y-112382867D01*
X149734949Y-112318046D01*
X149730821Y-112316870D01*
X149730818Y-112316869D01*
X149454455Y-112238145D01*
X149454456Y-112238145D01*
X149450327Y-112236969D01*
X149218754Y-112204012D01*
X149161587Y-112195876D01*
X149161585Y-112195876D01*
X149157335Y-112195271D01*
X149153046Y-112195249D01*
X149153039Y-112195248D01*
X148865681Y-112193743D01*
X148865674Y-112193743D01*
X148861395Y-112193721D01*
X148857151Y-112194280D01*
X148857147Y-112194280D01*
X148752417Y-112208068D01*
X148567982Y-112232349D01*
X148563842Y-112233482D01*
X148563840Y-112233482D01*
X148427981Y-112270649D01*
X148282527Y-112310441D01*
X148262749Y-112318877D01*
X148014253Y-112424869D01*
X148014246Y-112424873D01*
X148010311Y-112426551D01*
X147865791Y-112513045D01*
X147760054Y-112576327D01*
X147760050Y-112576330D01*
X147756372Y-112578531D01*
X147525408Y-112763568D01*
X147522464Y-112766670D01*
X147522460Y-112766674D01*
X147461045Y-112831392D01*
X147321693Y-112978238D01*
X147304872Y-113001647D01*
X147225556Y-113112026D01*
X147169562Y-113155674D01*
X147123234Y-113164500D01*
X138574219Y-113164500D01*
X138506098Y-113144498D01*
X138459605Y-113090842D01*
X138449501Y-113020568D01*
X138483735Y-112950815D01*
X138614819Y-112815546D01*
X138659693Y-112769240D01*
X138662226Y-112765792D01*
X138662230Y-112765787D01*
X138832358Y-112534185D01*
X138834896Y-112530730D01*
X138885788Y-112437000D01*
X138974061Y-112274421D01*
X138976109Y-112270649D01*
X139080717Y-111993809D01*
X139146787Y-111705334D01*
X139173095Y-111410562D01*
X139173572Y-111365000D01*
X139155856Y-111105135D01*
X139153735Y-111074018D01*
X139153734Y-111074012D01*
X139153443Y-111069741D01*
X139139364Y-111001757D01*
X139145136Y-110930997D01*
X139173649Y-110887115D01*
X142272321Y-107788442D01*
X154939303Y-107788442D01*
X154948017Y-107799962D01*
X155049394Y-107874296D01*
X155057293Y-107879232D01*
X155282901Y-107997930D01*
X155291450Y-108001647D01*
X155532113Y-108085690D01*
X155541122Y-108088104D01*
X155791572Y-108135654D01*
X155800827Y-108136708D01*
X156055557Y-108146717D01*
X156064871Y-108146391D01*
X156318270Y-108118640D01*
X156327447Y-108116939D01*
X156573960Y-108052037D01*
X156582780Y-108049000D01*
X156816997Y-107948373D01*
X156825269Y-107944066D01*
X157042036Y-107809927D01*
X157049579Y-107804447D01*
X157051272Y-107803014D01*
X157059710Y-107790211D01*
X157053645Y-107779855D01*
X156010812Y-106737022D01*
X155996868Y-106729408D01*
X155995035Y-106729539D01*
X155988420Y-106733790D01*
X154945961Y-107776249D01*
X154939303Y-107788442D01*
X142272321Y-107788442D01*
X143005243Y-107055520D01*
X143011261Y-107049883D01*
X143025062Y-107037780D01*
X143062543Y-107004910D01*
X143120111Y-106931884D01*
X143122173Y-106929339D01*
X143177906Y-106862327D01*
X143177907Y-106862326D01*
X143181601Y-106857884D01*
X143184497Y-106852714D01*
X143195470Y-106836292D01*
X143195560Y-106836178D01*
X143195562Y-106836176D01*
X143199137Y-106831640D01*
X143242423Y-106749367D01*
X143243987Y-106746487D01*
X143286587Y-106670421D01*
X143286588Y-106670420D01*
X143289410Y-106665380D01*
X143291312Y-106659778D01*
X143299114Y-106641617D01*
X143301869Y-106636380D01*
X143303584Y-106630857D01*
X143303586Y-106630852D01*
X143329441Y-106547587D01*
X143330460Y-106544450D01*
X143358475Y-106461921D01*
X143358476Y-106461916D01*
X143360331Y-106456452D01*
X143361180Y-106450598D01*
X143365543Y-106431318D01*
X143365583Y-106431188D01*
X143365584Y-106431183D01*
X143367297Y-106425667D01*
X143378228Y-106333313D01*
X143378659Y-106330044D01*
X143379680Y-106322999D01*
X154215849Y-106322999D01*
X154228080Y-106577619D01*
X154229217Y-106586879D01*
X154278947Y-106836894D01*
X154281441Y-106845887D01*
X154367578Y-107085797D01*
X154371378Y-107094332D01*
X154492031Y-107318877D01*
X154497045Y-107326748D01*
X154563154Y-107415279D01*
X154574414Y-107423729D01*
X154586832Y-107416958D01*
X155625978Y-106377812D01*
X155632356Y-106366132D01*
X156362408Y-106366132D01*
X156362539Y-106367965D01*
X156366790Y-106374580D01*
X157412386Y-107420176D01*
X157424766Y-107426936D01*
X157433107Y-107420692D01*
X157562391Y-107219697D01*
X157566838Y-107211506D01*
X157671536Y-106979085D01*
X157674731Y-106970307D01*
X157743923Y-106724968D01*
X157745781Y-106715839D01*
X157778144Y-106461444D01*
X157778625Y-106455158D01*
X157780903Y-106368160D01*
X157780752Y-106361851D01*
X157761747Y-106106110D01*
X157760370Y-106096904D01*
X157704109Y-105848262D01*
X157701385Y-105839351D01*
X157608990Y-105601758D01*
X157604979Y-105593349D01*
X157478482Y-105372027D01*
X157473269Y-105364298D01*
X157433633Y-105314019D01*
X157421709Y-105305549D01*
X157410174Y-105312036D01*
X156370022Y-106352188D01*
X156362408Y-106366132D01*
X155632356Y-106366132D01*
X155633592Y-106363868D01*
X155633461Y-106362035D01*
X155629210Y-106355420D01*
X154585119Y-105311329D01*
X154571811Y-105304062D01*
X154561772Y-105311184D01*
X154549433Y-105326020D01*
X154544018Y-105333612D01*
X154411776Y-105551540D01*
X154407538Y-105559857D01*
X154308961Y-105794935D01*
X154306000Y-105803785D01*
X154243255Y-106050849D01*
X154241633Y-106060046D01*
X154216094Y-106313673D01*
X154215849Y-106322999D01*
X143379680Y-106322999D01*
X143383318Y-106297907D01*
X143391990Y-106238098D01*
X143388597Y-106151739D01*
X143388500Y-106146792D01*
X143388500Y-104939357D01*
X154936770Y-104939357D01*
X154941343Y-104949133D01*
X155985188Y-105992978D01*
X155999132Y-106000592D01*
X156000965Y-106000461D01*
X156007580Y-105996210D01*
X157050790Y-104953000D01*
X157057174Y-104941310D01*
X157047762Y-104929199D01*
X156906776Y-104831392D01*
X156898741Y-104826659D01*
X156670106Y-104713909D01*
X156661473Y-104710421D01*
X156418675Y-104632701D01*
X156409624Y-104630528D01*
X156158009Y-104589550D01*
X156148720Y-104588738D01*
X155893828Y-104585401D01*
X155884517Y-104585971D01*
X155631927Y-104620347D01*
X155622808Y-104622285D01*
X155378084Y-104693616D01*
X155369331Y-104696888D01*
X155137837Y-104803608D01*
X155129682Y-104808128D01*
X154945907Y-104928616D01*
X154936770Y-104939357D01*
X143388500Y-104939357D01*
X143388500Y-103243218D01*
X143408502Y-103175097D01*
X143436754Y-103144064D01*
X143640361Y-102984416D01*
X143643742Y-102981765D01*
X143849693Y-102769240D01*
X143852226Y-102765792D01*
X143852230Y-102765787D01*
X144022358Y-102534185D01*
X144024896Y-102530730D01*
X144073545Y-102441131D01*
X144164061Y-102274421D01*
X144166109Y-102270649D01*
X144239997Y-102075108D01*
X144269202Y-101997819D01*
X144269203Y-101997816D01*
X144270717Y-101993809D01*
X144308517Y-101828766D01*
X144335830Y-101709514D01*
X144335831Y-101709509D01*
X144336787Y-101705334D01*
X144363095Y-101410562D01*
X144363366Y-101384727D01*
X144363546Y-101367485D01*
X144363572Y-101365000D01*
X144345893Y-101105676D01*
X144343735Y-101074018D01*
X144343734Y-101074012D01*
X144343443Y-101069741D01*
X144339657Y-101051456D01*
X144284299Y-100784143D01*
X144283430Y-100779946D01*
X144184641Y-100500976D01*
X144177407Y-100486959D01*
X144050872Y-100241802D01*
X144050872Y-100241801D01*
X144048907Y-100237995D01*
X144037929Y-100222374D01*
X143881204Y-99999378D01*
X143881203Y-99999377D01*
X143878737Y-99995868D01*
X143677282Y-99779076D01*
X143669575Y-99772768D01*
X143451583Y-99594344D01*
X143451580Y-99594342D01*
X143448268Y-99591631D01*
X143444619Y-99589395D01*
X143441508Y-99587184D01*
X143397569Y-99531418D01*
X143388500Y-99484480D01*
X143388500Y-91789740D01*
X143388770Y-91781499D01*
X143392853Y-91719206D01*
X143393231Y-91713440D01*
X143392388Y-91706314D01*
X143392499Y-91705660D01*
X143392401Y-91701924D01*
X143393135Y-91701905D01*
X143404242Y-91636314D01*
X143452060Y-91583835D01*
X143517514Y-91565500D01*
X147093271Y-91565500D01*
X147101512Y-91565770D01*
X147118444Y-91566880D01*
X147169560Y-91570230D01*
X147202147Y-91566373D01*
X147216956Y-91565500D01*
X160743271Y-91565500D01*
X160751512Y-91565770D01*
X160768444Y-91566880D01*
X160819560Y-91570230D01*
X160911927Y-91559298D01*
X160915149Y-91558960D01*
X161007711Y-91550454D01*
X161013278Y-91548884D01*
X161013282Y-91548883D01*
X161013406Y-91548848D01*
X161032789Y-91544992D01*
X161032929Y-91544975D01*
X161038667Y-91544296D01*
X161127459Y-91516726D01*
X161130535Y-91515814D01*
X161220064Y-91490565D01*
X161225241Y-91488012D01*
X161225251Y-91488008D01*
X161225376Y-91487946D01*
X161243737Y-91480621D01*
X161243860Y-91480583D01*
X161243864Y-91480581D01*
X161249379Y-91478869D01*
X161331634Y-91435593D01*
X161334565Y-91434099D01*
X161377297Y-91413026D01*
X161417947Y-91392980D01*
X161422693Y-91389436D01*
X161439405Y-91378892D01*
X161444641Y-91376137D01*
X161517663Y-91318572D01*
X161520265Y-91316575D01*
X161590109Y-91264420D01*
X161594733Y-91260967D01*
X161653418Y-91197482D01*
X161656847Y-91193917D01*
X165803905Y-87046859D01*
X165866217Y-87012833D01*
X165937032Y-87017898D01*
X165982095Y-87046859D01*
X175760595Y-96825358D01*
X175794621Y-96887670D01*
X175797500Y-96914453D01*
X175797500Y-112815546D01*
X175777498Y-112883667D01*
X175760595Y-112904641D01*
X174537642Y-114127595D01*
X174475330Y-114161620D01*
X174448547Y-114164500D01*
X170547453Y-114164500D01*
X170479332Y-114144498D01*
X170458358Y-114127595D01*
X170235405Y-113904642D01*
X170201379Y-113842330D01*
X170198500Y-113815547D01*
X170198500Y-112016913D01*
X170218502Y-111948792D01*
X170272158Y-111902299D01*
X170342432Y-111892195D01*
X170407012Y-111921689D01*
X170428712Y-111946091D01*
X170546082Y-112118796D01*
X170552419Y-112126677D01*
X170712186Y-112295626D01*
X170719695Y-112302387D01*
X170904426Y-112443625D01*
X170912905Y-112449089D01*
X171117847Y-112558978D01*
X171127099Y-112563020D01*
X171346971Y-112638727D01*
X171356743Y-112641236D01*
X171586971Y-112681004D01*
X171594843Y-112681859D01*
X171618551Y-112682936D01*
X171621384Y-112683000D01*
X171725885Y-112683000D01*
X171741124Y-112678525D01*
X171742329Y-112677135D01*
X171744000Y-112669452D01*
X171744000Y-112664885D01*
X172252000Y-112664885D01*
X172256475Y-112680124D01*
X172257865Y-112681329D01*
X172265548Y-112683000D01*
X172326456Y-112683000D01*
X172331488Y-112682798D01*
X172504843Y-112668850D01*
X172514796Y-112667238D01*
X172740633Y-112611767D01*
X172750203Y-112608584D01*
X172964265Y-112517720D01*
X172973207Y-112513045D01*
X173169987Y-112389126D01*
X173178060Y-112383086D01*
X173352500Y-112229297D01*
X173359504Y-112222044D01*
X173507110Y-112042346D01*
X173512866Y-112034064D01*
X173629841Y-111833081D01*
X173634203Y-111823976D01*
X173717537Y-111606885D01*
X173720388Y-111597196D01*
X173751821Y-111446736D01*
X173750698Y-111432675D01*
X173740590Y-111429000D01*
X172270115Y-111429000D01*
X172254876Y-111433475D01*
X172253671Y-111434865D01*
X172252000Y-111442548D01*
X172252000Y-112664885D01*
X171744000Y-112664885D01*
X171744000Y-111047000D01*
X171764002Y-110978879D01*
X171817658Y-110932386D01*
X171870000Y-110921000D01*
X173738590Y-110921000D01*
X173752676Y-110916864D01*
X173754725Y-110903886D01*
X173752675Y-110886170D01*
X173750715Y-110876273D01*
X173687396Y-110652506D01*
X173683884Y-110643062D01*
X173585601Y-110432295D01*
X173580622Y-110423530D01*
X173468901Y-110259138D01*
X173447155Y-110191553D01*
X173465399Y-110122941D01*
X173496670Y-110088153D01*
X173527044Y-110064972D01*
X173527049Y-110064968D01*
X173530678Y-110062198D01*
X173595520Y-109995868D01*
X173720283Y-109868242D01*
X173720287Y-109868237D01*
X173723477Y-109864974D01*
X173783716Y-109782215D01*
X173883100Y-109645676D01*
X173883102Y-109645673D01*
X173885787Y-109641984D01*
X174014206Y-109397899D01*
X174106045Y-109137832D01*
X174159380Y-108867232D01*
X174173094Y-108591767D01*
X174146898Y-108317208D01*
X174105100Y-108146391D01*
X174082429Y-108053744D01*
X174081343Y-108049306D01*
X173977801Y-107793674D01*
X173975500Y-107789744D01*
X173975497Y-107789738D01*
X173840745Y-107559597D01*
X173840740Y-107559590D01*
X173838442Y-107555665D01*
X173771898Y-107472456D01*
X173750408Y-107445584D01*
X173723484Y-107379891D01*
X173736350Y-107310070D01*
X173746940Y-107292739D01*
X173760274Y-107274421D01*
X173878106Y-107112537D01*
X173883100Y-107105676D01*
X173883102Y-107105673D01*
X173885787Y-107101984D01*
X174014206Y-106857899D01*
X174106045Y-106597832D01*
X174134166Y-106455158D01*
X174158499Y-106331704D01*
X174158500Y-106331698D01*
X174159380Y-106327232D01*
X174160757Y-106299570D01*
X174172867Y-106056336D01*
X174172867Y-106056330D01*
X174173094Y-106051767D01*
X174146898Y-105777208D01*
X174127393Y-105697494D01*
X174082429Y-105513744D01*
X174081343Y-105509306D01*
X173977801Y-105253674D01*
X173975500Y-105249744D01*
X173975497Y-105249738D01*
X173840745Y-105019597D01*
X173840740Y-105019590D01*
X173838442Y-105015665D01*
X173821642Y-104994658D01*
X173750408Y-104905584D01*
X173723484Y-104839891D01*
X173736350Y-104770070D01*
X173746940Y-104752739D01*
X173883100Y-104565676D01*
X173883102Y-104565673D01*
X173885787Y-104561984D01*
X174014206Y-104317899D01*
X174106045Y-104057832D01*
X174140543Y-103882805D01*
X174158499Y-103791704D01*
X174158500Y-103791698D01*
X174159380Y-103787232D01*
X174160252Y-103769717D01*
X174172867Y-103516336D01*
X174172867Y-103516330D01*
X174173094Y-103511767D01*
X174146898Y-103237208D01*
X174129076Y-103164373D01*
X174082429Y-102973744D01*
X174081343Y-102969306D01*
X173977801Y-102713674D01*
X173975500Y-102709744D01*
X173975497Y-102709738D01*
X173840745Y-102479597D01*
X173840740Y-102479590D01*
X173838442Y-102475665D01*
X173737761Y-102349770D01*
X173669036Y-102263834D01*
X173669035Y-102263833D01*
X173666184Y-102260268D01*
X173464636Y-102071992D01*
X173238021Y-101914784D01*
X173233943Y-101912755D01*
X172995173Y-101793968D01*
X172995170Y-101793967D01*
X172991086Y-101791935D01*
X172729002Y-101706020D01*
X172724510Y-101705240D01*
X172461043Y-101659494D01*
X172461035Y-101659493D01*
X172457262Y-101658838D01*
X172447029Y-101658329D01*
X172371695Y-101654578D01*
X172371687Y-101654578D01*
X172370124Y-101654500D01*
X171657930Y-101654500D01*
X171655662Y-101654665D01*
X171655650Y-101654665D01*
X171521397Y-101664406D01*
X171452917Y-101669375D01*
X171448462Y-101670359D01*
X171448459Y-101670359D01*
X171188053Y-101727852D01*
X171188050Y-101727853D01*
X171183597Y-101728836D01*
X170925681Y-101826551D01*
X170684572Y-101960475D01*
X170465322Y-102127802D01*
X170462129Y-102131068D01*
X170462127Y-102131070D01*
X170280780Y-102316579D01*
X170218858Y-102351309D01*
X170190680Y-102354500D01*
X170172729Y-102354500D01*
X170164488Y-102354230D01*
X170147556Y-102353120D01*
X170096440Y-102349770D01*
X170004073Y-102360702D01*
X170000851Y-102361040D01*
X169908289Y-102369546D01*
X169902722Y-102371116D01*
X169902718Y-102371117D01*
X169902594Y-102371152D01*
X169883211Y-102375008D01*
X169883074Y-102375025D01*
X169877333Y-102375704D01*
X169788549Y-102403272D01*
X169785465Y-102404186D01*
X169695936Y-102429435D01*
X169690759Y-102431988D01*
X169690749Y-102431992D01*
X169690624Y-102432054D01*
X169672263Y-102439379D01*
X169672140Y-102439417D01*
X169672136Y-102439419D01*
X169666621Y-102441131D01*
X169584375Y-102484403D01*
X169581444Y-102485896D01*
X169498053Y-102527020D01*
X169493307Y-102530564D01*
X169476595Y-102541108D01*
X169471359Y-102543863D01*
X169418540Y-102585502D01*
X169398352Y-102601417D01*
X169395750Y-102603413D01*
X169321267Y-102659033D01*
X169274396Y-102709738D01*
X169262582Y-102722518D01*
X169259152Y-102726084D01*
X165181737Y-106803500D01*
X165175719Y-106809137D01*
X165124437Y-106854110D01*
X165120865Y-106858641D01*
X165066869Y-106927134D01*
X165064794Y-106929696D01*
X165011473Y-106993809D01*
X165005378Y-107001137D01*
X165002553Y-107006181D01*
X165002482Y-107006307D01*
X164991509Y-107022729D01*
X164991418Y-107022844D01*
X164991415Y-107022849D01*
X164987843Y-107027380D01*
X164985153Y-107032493D01*
X164944565Y-107109637D01*
X164943001Y-107112518D01*
X164897570Y-107193641D01*
X164895670Y-107199240D01*
X164887864Y-107217407D01*
X164885111Y-107222640D01*
X164869033Y-107274421D01*
X164857549Y-107311404D01*
X164856530Y-107314540D01*
X164834347Y-107379891D01*
X164826649Y-107402568D01*
X164825798Y-107408436D01*
X164821441Y-107427690D01*
X164821395Y-107427837D01*
X164821394Y-107427843D01*
X164819683Y-107433353D01*
X164819005Y-107439081D01*
X164819004Y-107439086D01*
X164808757Y-107525670D01*
X164808327Y-107528935D01*
X164794989Y-107620922D01*
X164797612Y-107687671D01*
X164798383Y-107707306D01*
X164798480Y-107712253D01*
X164798480Y-115971251D01*
X164798210Y-115979492D01*
X164793750Y-116047540D01*
X164804355Y-116137135D01*
X164804679Y-116139875D01*
X164805020Y-116143129D01*
X164813526Y-116235691D01*
X164815096Y-116241258D01*
X164815097Y-116241262D01*
X164815132Y-116241386D01*
X164818988Y-116260769D01*
X164819684Y-116266647D01*
X164821396Y-116272159D01*
X164847252Y-116355431D01*
X164848166Y-116358515D01*
X164873415Y-116448044D01*
X164875968Y-116453221D01*
X164875972Y-116453231D01*
X164876034Y-116453356D01*
X164883359Y-116471717D01*
X164885111Y-116477359D01*
X164887801Y-116482471D01*
X164928383Y-116559605D01*
X164929876Y-116562536D01*
X164971000Y-116645927D01*
X164974544Y-116650673D01*
X164985088Y-116667385D01*
X164987843Y-116672621D01*
X165023840Y-116718283D01*
X165045397Y-116745628D01*
X165047393Y-116748230D01*
X165103013Y-116822713D01*
X165121012Y-116839351D01*
X165166497Y-116881397D01*
X165170063Y-116884827D01*
X169755082Y-121469846D01*
X169789108Y-121532158D01*
X169784043Y-121602973D01*
X169741496Y-121659809D01*
X169674976Y-121684620D01*
X169652397Y-121684047D01*
X169650232Y-121683620D01*
X169645675Y-121683393D01*
X169645674Y-121683393D01*
X169379336Y-121670133D01*
X169379330Y-121670133D01*
X169374767Y-121669906D01*
X169100208Y-121696102D01*
X169095774Y-121697187D01*
X169095768Y-121697188D01*
X168836744Y-121760571D01*
X168832306Y-121761657D01*
X168576674Y-121865199D01*
X168572744Y-121867500D01*
X168572738Y-121867503D01*
X168342597Y-122002255D01*
X168342590Y-122002260D01*
X168338665Y-122004558D01*
X168335105Y-122007405D01*
X168228584Y-122092592D01*
X168162891Y-122119516D01*
X168093070Y-122106650D01*
X168075739Y-122096060D01*
X168070975Y-122092592D01*
X167953949Y-122007411D01*
X167888676Y-121959900D01*
X167888670Y-121959896D01*
X167884984Y-121957213D01*
X167640899Y-121828794D01*
X167380832Y-121736955D01*
X167281126Y-121717303D01*
X167114704Y-121684501D01*
X167114698Y-121684500D01*
X167110232Y-121683620D01*
X167105678Y-121683393D01*
X167105676Y-121683393D01*
X166839336Y-121670133D01*
X166839330Y-121670133D01*
X166834767Y-121669906D01*
X166560208Y-121696102D01*
X166555774Y-121697187D01*
X166555768Y-121697188D01*
X166296744Y-121760571D01*
X166292306Y-121761657D01*
X166036674Y-121865199D01*
X166032744Y-121867500D01*
X166032738Y-121867503D01*
X165802597Y-122002255D01*
X165802590Y-122002260D01*
X165798665Y-122004558D01*
X165795105Y-122007405D01*
X165688584Y-122092592D01*
X165622891Y-122119516D01*
X165553070Y-122106650D01*
X165535739Y-122096060D01*
X165530975Y-122092592D01*
X165413949Y-122007411D01*
X165348676Y-121959900D01*
X165348670Y-121959896D01*
X165344984Y-121957213D01*
X165100899Y-121828794D01*
X164840832Y-121736955D01*
X164741126Y-121717303D01*
X164574704Y-121684501D01*
X164574698Y-121684500D01*
X164570232Y-121683620D01*
X164565678Y-121683393D01*
X164565676Y-121683393D01*
X164299336Y-121670133D01*
X164299330Y-121670133D01*
X164294767Y-121669906D01*
X164020208Y-121696102D01*
X164015774Y-121697187D01*
X164015768Y-121697188D01*
X163756744Y-121760571D01*
X163752306Y-121761657D01*
X163496674Y-121865199D01*
X163492744Y-121867500D01*
X163492738Y-121867503D01*
X163262597Y-122002255D01*
X163262590Y-122002260D01*
X163258665Y-122004558D01*
X163255101Y-122007409D01*
X163255097Y-122007411D01*
X163203195Y-122048918D01*
X163137502Y-122075843D01*
X163067681Y-122062978D01*
X163015900Y-122014406D01*
X162998500Y-121950516D01*
X162998500Y-107209740D01*
X162998770Y-107201499D01*
X163002853Y-107139206D01*
X163003231Y-107133440D01*
X162996364Y-107075422D01*
X162992297Y-107041060D01*
X162991953Y-107037780D01*
X162983983Y-106951043D01*
X162983982Y-106951040D01*
X162983454Y-106945289D01*
X162981849Y-106939597D01*
X162977994Y-106920218D01*
X162977977Y-106920074D01*
X162977976Y-106920068D01*
X162977297Y-106914333D01*
X162949722Y-106825524D01*
X162948790Y-106822377D01*
X162947343Y-106817245D01*
X162923565Y-106732936D01*
X162921008Y-106727751D01*
X162921006Y-106727746D01*
X162920946Y-106727624D01*
X162913621Y-106709263D01*
X162913582Y-106709136D01*
X162913579Y-106709130D01*
X162911869Y-106703621D01*
X162909183Y-106698516D01*
X162909179Y-106698506D01*
X162868602Y-106621382D01*
X162867104Y-106618443D01*
X162828537Y-106540236D01*
X162828532Y-106540228D01*
X162825980Y-106535053D01*
X162822439Y-106530311D01*
X162811884Y-106513582D01*
X162811825Y-106513470D01*
X162809137Y-106508360D01*
X162751585Y-106435356D01*
X162749589Y-106432754D01*
X162734858Y-106413026D01*
X162706149Y-106374580D01*
X162697420Y-106362891D01*
X162697420Y-106362890D01*
X162693967Y-106358267D01*
X162630468Y-106299570D01*
X162626903Y-106296140D01*
X158175445Y-101844682D01*
X158141419Y-101782370D01*
X158141720Y-101727458D01*
X158145829Y-101709518D01*
X158145830Y-101709514D01*
X158146787Y-101705334D01*
X158147168Y-101701061D01*
X158147169Y-101701057D01*
X158172875Y-101413026D01*
X158173095Y-101410562D01*
X158173366Y-101384727D01*
X158173546Y-101367485D01*
X158173572Y-101365000D01*
X158155893Y-101105676D01*
X158153735Y-101074018D01*
X158153734Y-101074012D01*
X158153443Y-101069741D01*
X158149657Y-101051456D01*
X158094299Y-100784143D01*
X158093430Y-100779946D01*
X157994641Y-100500976D01*
X157987407Y-100486959D01*
X157860872Y-100241802D01*
X157860872Y-100241801D01*
X157858907Y-100237995D01*
X157847929Y-100222374D01*
X157691204Y-99999378D01*
X157691203Y-99999377D01*
X157688737Y-99995868D01*
X157487282Y-99779076D01*
X157479026Y-99772318D01*
X157261586Y-99594347D01*
X157258268Y-99591631D01*
X157152738Y-99526962D01*
X157009584Y-99439236D01*
X157009576Y-99439232D01*
X157005934Y-99437000D01*
X157002017Y-99435281D01*
X157002014Y-99435279D01*
X156882616Y-99382867D01*
X156734949Y-99318046D01*
X156730821Y-99316870D01*
X156730818Y-99316869D01*
X156454455Y-99238145D01*
X156454456Y-99238145D01*
X156450327Y-99236969D01*
X156218754Y-99204012D01*
X156161587Y-99195876D01*
X156161585Y-99195876D01*
X156157335Y-99195271D01*
X156153046Y-99195249D01*
X156153039Y-99195248D01*
X155865681Y-99193743D01*
X155865674Y-99193743D01*
X155861395Y-99193721D01*
X155857151Y-99194280D01*
X155857147Y-99194280D01*
X155752417Y-99208068D01*
X155567982Y-99232349D01*
X155563842Y-99233482D01*
X155563840Y-99233482D01*
X155427981Y-99270649D01*
X155282527Y-99310441D01*
X155231746Y-99332101D01*
X155014253Y-99424869D01*
X155014246Y-99424873D01*
X155010311Y-99426551D01*
X154913519Y-99484480D01*
X154760054Y-99576327D01*
X154760050Y-99576330D01*
X154756372Y-99578531D01*
X154525408Y-99763568D01*
X154522464Y-99766670D01*
X154522460Y-99766674D01*
X154435514Y-99858296D01*
X154321693Y-99978238D01*
X154272131Y-100047211D01*
X154225556Y-100112026D01*
X154169562Y-100155674D01*
X154123234Y-100164500D01*
X151682706Y-100164500D01*
X151614585Y-100144498D01*
X151579619Y-100110951D01*
X151501204Y-99999378D01*
X151501203Y-99999377D01*
X151498737Y-99995868D01*
X151297282Y-99779076D01*
X151289026Y-99772318D01*
X151071586Y-99594347D01*
X151068268Y-99591631D01*
X150962738Y-99526962D01*
X150819584Y-99439236D01*
X150819576Y-99439232D01*
X150815934Y-99437000D01*
X150812017Y-99435281D01*
X150812014Y-99435279D01*
X150692616Y-99382867D01*
X150544949Y-99318046D01*
X150540821Y-99316870D01*
X150540818Y-99316869D01*
X150264455Y-99238145D01*
X150264456Y-99238145D01*
X150260327Y-99236969D01*
X150028754Y-99204012D01*
X149971587Y-99195876D01*
X149971585Y-99195876D01*
X149967335Y-99195271D01*
X149963046Y-99195249D01*
X149963039Y-99195248D01*
X149675681Y-99193743D01*
X149675674Y-99193743D01*
X149671395Y-99193721D01*
X149667151Y-99194280D01*
X149667147Y-99194280D01*
X149562417Y-99208068D01*
X149377982Y-99232349D01*
X149373842Y-99233482D01*
X149373840Y-99233482D01*
X149237981Y-99270649D01*
X149092527Y-99310441D01*
X149041746Y-99332101D01*
X148824253Y-99424869D01*
X148824246Y-99424873D01*
X148820311Y-99426551D01*
X148723519Y-99484480D01*
X148570054Y-99576327D01*
X148570050Y-99576330D01*
X148566372Y-99578531D01*
X148335408Y-99763568D01*
X148332464Y-99766670D01*
X148332460Y-99766674D01*
X148169886Y-99937991D01*
X148131693Y-99978238D01*
X147958997Y-100218570D01*
X147820516Y-100480115D01*
X147718812Y-100758035D01*
X147655767Y-101047186D01*
X147632547Y-101342218D01*
X147649583Y-101637671D01*
X147650408Y-101641876D01*
X147650409Y-101641884D01*
X147680247Y-101793968D01*
X147706559Y-101928079D01*
X147802420Y-102208068D01*
X147935394Y-102472456D01*
X148103018Y-102716352D01*
X148302193Y-102935241D01*
X148305482Y-102937991D01*
X148525939Y-103122323D01*
X148525944Y-103122327D01*
X148529231Y-103125075D01*
X148587653Y-103161723D01*
X148776292Y-103280056D01*
X148776296Y-103280058D01*
X148779932Y-103282339D01*
X148783842Y-103284104D01*
X148783843Y-103284105D01*
X149045744Y-103402358D01*
X149045748Y-103402360D01*
X149049656Y-103404124D01*
X149053775Y-103405344D01*
X149329301Y-103486959D01*
X149329305Y-103486960D01*
X149333414Y-103488177D01*
X149337648Y-103488825D01*
X149337653Y-103488826D01*
X149526111Y-103517664D01*
X149625953Y-103532942D01*
X149776665Y-103535309D01*
X149917570Y-103537523D01*
X149917576Y-103537523D01*
X149921861Y-103537590D01*
X150215662Y-103502037D01*
X150501919Y-103426938D01*
X150775336Y-103313685D01*
X150825957Y-103284105D01*
X151027145Y-103166540D01*
X151027147Y-103166538D01*
X151030853Y-103164373D01*
X151263742Y-102981765D01*
X151469693Y-102769240D01*
X151553185Y-102655580D01*
X151581594Y-102616906D01*
X151638043Y-102573847D01*
X151683141Y-102565500D01*
X154123049Y-102565500D01*
X154191170Y-102585502D01*
X154226889Y-102620133D01*
X154293018Y-102716352D01*
X154492193Y-102935241D01*
X154495482Y-102937991D01*
X154715939Y-103122323D01*
X154715944Y-103122327D01*
X154719231Y-103125075D01*
X154777653Y-103161723D01*
X154966292Y-103280056D01*
X154966296Y-103280058D01*
X154969932Y-103282339D01*
X154973842Y-103284104D01*
X154973843Y-103284105D01*
X155235744Y-103402358D01*
X155235748Y-103402360D01*
X155239656Y-103404124D01*
X155243775Y-103405344D01*
X155519301Y-103486959D01*
X155519305Y-103486960D01*
X155523414Y-103488177D01*
X155527648Y-103488825D01*
X155527653Y-103488826D01*
X155716111Y-103517664D01*
X155815953Y-103532942D01*
X155966665Y-103535309D01*
X156107570Y-103537523D01*
X156107576Y-103537523D01*
X156111861Y-103537590D01*
X156372987Y-103505991D01*
X156443017Y-103517664D01*
X156477219Y-103541983D01*
X160560595Y-107625359D01*
X160594621Y-107687671D01*
X160597500Y-107714454D01*
X160597500Y-122040884D01*
X160577498Y-122109005D01*
X160550195Y-122139286D01*
X160506843Y-122173956D01*
X160506835Y-122173963D01*
X160503268Y-122176816D01*
X160500147Y-122180157D01*
X160344917Y-122346330D01*
X160314992Y-122378364D01*
X160157784Y-122604979D01*
X160155756Y-122609055D01*
X160155755Y-122609057D01*
X160047517Y-122826624D01*
X160034935Y-122851914D01*
X159949020Y-123113998D01*
X159948240Y-123118489D01*
X159948240Y-123118490D01*
X159915949Y-123304468D01*
X159901838Y-123385738D01*
X159901647Y-123389575D01*
X159899093Y-123440887D01*
X159897500Y-123472876D01*
X159897500Y-124145070D01*
X159897665Y-124147338D01*
X159897665Y-124147350D01*
X159905870Y-124260425D01*
X159912375Y-124350083D01*
X159913359Y-124354538D01*
X159913359Y-124354541D01*
X159954379Y-124540335D01*
X159971836Y-124619403D01*
X160069551Y-124877319D01*
X160071765Y-124881306D01*
X160071766Y-124881307D01*
X160183969Y-125083311D01*
X160203475Y-125118428D01*
X160206247Y-125122060D01*
X160368029Y-125334044D01*
X160370802Y-125337678D01*
X160374068Y-125340871D01*
X160374070Y-125340873D01*
X160564758Y-125527283D01*
X160564763Y-125527287D01*
X160568026Y-125530477D01*
X160571718Y-125533164D01*
X160571720Y-125533166D01*
X160722060Y-125642595D01*
X160791016Y-125692787D01*
X161035101Y-125821206D01*
X161295168Y-125913045D01*
X161394874Y-125932697D01*
X161561296Y-125965499D01*
X161561302Y-125965500D01*
X161565768Y-125966380D01*
X161570322Y-125966607D01*
X161570324Y-125966607D01*
X161836664Y-125979867D01*
X161836670Y-125979867D01*
X161841233Y-125980094D01*
X162115792Y-125953898D01*
X162120226Y-125952813D01*
X162120232Y-125952812D01*
X162379256Y-125889429D01*
X162383694Y-125888343D01*
X162639326Y-125784801D01*
X162643256Y-125782500D01*
X162643262Y-125782497D01*
X162873403Y-125647745D01*
X162873410Y-125647740D01*
X162877335Y-125645442D01*
X162987416Y-125557408D01*
X163053109Y-125530484D01*
X163122930Y-125543350D01*
X163140259Y-125553939D01*
X163148140Y-125559675D01*
X163262060Y-125642595D01*
X163331016Y-125692787D01*
X163575101Y-125821206D01*
X163835168Y-125913045D01*
X163934874Y-125932697D01*
X164101296Y-125965499D01*
X164101302Y-125965500D01*
X164105768Y-125966380D01*
X164110322Y-125966607D01*
X164110324Y-125966607D01*
X164376664Y-125979867D01*
X164376670Y-125979867D01*
X164381233Y-125980094D01*
X164655792Y-125953898D01*
X164660226Y-125952813D01*
X164660232Y-125952812D01*
X164919256Y-125889429D01*
X164923694Y-125888343D01*
X165179326Y-125784801D01*
X165183256Y-125782500D01*
X165183262Y-125782497D01*
X165413403Y-125647745D01*
X165413410Y-125647740D01*
X165417335Y-125645442D01*
X165527416Y-125557408D01*
X165593109Y-125530484D01*
X165662930Y-125543350D01*
X165680259Y-125553939D01*
X165688140Y-125559675D01*
X165802060Y-125642595D01*
X165871016Y-125692787D01*
X166115101Y-125821206D01*
X166375168Y-125913045D01*
X166474874Y-125932697D01*
X166641296Y-125965499D01*
X166641302Y-125965500D01*
X166645768Y-125966380D01*
X166650322Y-125966607D01*
X166650324Y-125966607D01*
X166916664Y-125979867D01*
X166916670Y-125979867D01*
X166921233Y-125980094D01*
X167195792Y-125953898D01*
X167200226Y-125952813D01*
X167200232Y-125952812D01*
X167459256Y-125889429D01*
X167463694Y-125888343D01*
X167719326Y-125784801D01*
X167723256Y-125782500D01*
X167723262Y-125782497D01*
X167953403Y-125647745D01*
X167953410Y-125647740D01*
X167957335Y-125645442D01*
X168067416Y-125557408D01*
X168133109Y-125530484D01*
X168202930Y-125543350D01*
X168220259Y-125553939D01*
X168228140Y-125559675D01*
X168342060Y-125642595D01*
X168411016Y-125692787D01*
X168655101Y-125821206D01*
X168915168Y-125913045D01*
X169014874Y-125932697D01*
X169181296Y-125965499D01*
X169181302Y-125965500D01*
X169185768Y-125966380D01*
X169190322Y-125966607D01*
X169190324Y-125966607D01*
X169456664Y-125979867D01*
X169456670Y-125979867D01*
X169461233Y-125980094D01*
X169735792Y-125953898D01*
X169740226Y-125952813D01*
X169740232Y-125952812D01*
X169999256Y-125889429D01*
X170003694Y-125888343D01*
X170259326Y-125784801D01*
X170263256Y-125782500D01*
X170263262Y-125782497D01*
X170493403Y-125647745D01*
X170493410Y-125647740D01*
X170497335Y-125645442D01*
X170607416Y-125557408D01*
X170673109Y-125530484D01*
X170742930Y-125543350D01*
X170760259Y-125553939D01*
X170768140Y-125559675D01*
X170882060Y-125642595D01*
X170951016Y-125692787D01*
X171195101Y-125821206D01*
X171455168Y-125913045D01*
X171554874Y-125932697D01*
X171721296Y-125965499D01*
X171721302Y-125965500D01*
X171725768Y-125966380D01*
X171730322Y-125966607D01*
X171730324Y-125966607D01*
X171996664Y-125979867D01*
X171996670Y-125979867D01*
X172001233Y-125980094D01*
X172275792Y-125953898D01*
X172280226Y-125952813D01*
X172280232Y-125952812D01*
X172539256Y-125889429D01*
X172543694Y-125888343D01*
X172799326Y-125784801D01*
X172803256Y-125782500D01*
X172803262Y-125782497D01*
X173033403Y-125647745D01*
X173033410Y-125647740D01*
X173037335Y-125645442D01*
X173147416Y-125557408D01*
X173213109Y-125530484D01*
X173282930Y-125543350D01*
X173300259Y-125553939D01*
X173308140Y-125559675D01*
X173422060Y-125642595D01*
X173491016Y-125692787D01*
X173735101Y-125821206D01*
X173995168Y-125913045D01*
X174094874Y-125932697D01*
X174261296Y-125965499D01*
X174261302Y-125965500D01*
X174265768Y-125966380D01*
X174270322Y-125966607D01*
X174270324Y-125966607D01*
X174536664Y-125979867D01*
X174536670Y-125979867D01*
X174541233Y-125980094D01*
X174815792Y-125953898D01*
X174820226Y-125952813D01*
X174820232Y-125952812D01*
X175079256Y-125889429D01*
X175083694Y-125888343D01*
X175339326Y-125784801D01*
X175343256Y-125782500D01*
X175343262Y-125782497D01*
X175573403Y-125647745D01*
X175573410Y-125647740D01*
X175577335Y-125645442D01*
X175602401Y-125625396D01*
X175789166Y-125476036D01*
X175789167Y-125476035D01*
X175792732Y-125473184D01*
X175941332Y-125314109D01*
X175977892Y-125274972D01*
X175977894Y-125274969D01*
X175981008Y-125271636D01*
X176138216Y-125045021D01*
X176261065Y-124798086D01*
X176262487Y-124793748D01*
X176262489Y-124793744D01*
X176284269Y-124727303D01*
X176324496Y-124668802D01*
X176389965Y-124641336D01*
X176459889Y-124653626D01*
X176512070Y-124701768D01*
X176530000Y-124766552D01*
X176530000Y-127731000D01*
X176509998Y-127799121D01*
X176456342Y-127845614D01*
X176404000Y-127857000D01*
X111632000Y-127857000D01*
X111563879Y-127836998D01*
X111517386Y-127783342D01*
X111506000Y-127731000D01*
X111506000Y-123732732D01*
X122031979Y-123732732D01*
X122040832Y-124070801D01*
X122088483Y-124405613D01*
X122174300Y-124732728D01*
X122297146Y-125047812D01*
X122298843Y-125051017D01*
X122452314Y-125340873D01*
X122455393Y-125346689D01*
X122457443Y-125349672D01*
X122457445Y-125349675D01*
X122644886Y-125622404D01*
X122644892Y-125622411D01*
X122646943Y-125625396D01*
X122869258Y-125880240D01*
X123119390Y-126107843D01*
X123394025Y-126305188D01*
X123689522Y-126469659D01*
X124001964Y-126599077D01*
X124005458Y-126600072D01*
X124005460Y-126600073D01*
X124323710Y-126690729D01*
X124323715Y-126690730D01*
X124327211Y-126691726D01*
X124518754Y-126723092D01*
X124657370Y-126745792D01*
X124657377Y-126745793D01*
X124660951Y-126746378D01*
X124829856Y-126754343D01*
X124995134Y-126762138D01*
X124995135Y-126762138D01*
X124998761Y-126762309D01*
X125006677Y-126761769D01*
X125332532Y-126739555D01*
X125332540Y-126739554D01*
X125336163Y-126739307D01*
X125339739Y-126738644D01*
X125339741Y-126738644D01*
X125665120Y-126678339D01*
X125665124Y-126678338D01*
X125668685Y-126677678D01*
X125991920Y-126578238D01*
X126024889Y-126563765D01*
X126298260Y-126443764D01*
X126298264Y-126443762D01*
X126301583Y-126442305D01*
X126593571Y-126271681D01*
X126808968Y-126109957D01*
X126861106Y-126070811D01*
X126861110Y-126070808D01*
X126864013Y-126068628D01*
X127109323Y-125835837D01*
X127326252Y-125576393D01*
X127338521Y-125557715D01*
X127509937Y-125296761D01*
X127509942Y-125296752D01*
X127511924Y-125293735D01*
X127600094Y-125118428D01*
X127662250Y-124994846D01*
X127662253Y-124994838D01*
X127663877Y-124991610D01*
X127704242Y-124881307D01*
X127778849Y-124677434D01*
X127778852Y-124677425D01*
X127780097Y-124674022D01*
X127780942Y-124670500D01*
X127780945Y-124670492D01*
X127858198Y-124348710D01*
X127858199Y-124348706D01*
X127859045Y-124345181D01*
X127899674Y-124009445D01*
X127905470Y-123825000D01*
X127902126Y-123767003D01*
X127886212Y-123490996D01*
X127886211Y-123490991D01*
X127886003Y-123487376D01*
X127873413Y-123415237D01*
X127828483Y-123157799D01*
X127828481Y-123157792D01*
X127827859Y-123154226D01*
X127817274Y-123118490D01*
X127772647Y-122967836D01*
X127731809Y-122829968D01*
X127599126Y-122518898D01*
X127431570Y-122225139D01*
X127398528Y-122180157D01*
X127321901Y-122075843D01*
X127231360Y-121952586D01*
X127114916Y-121827277D01*
X127003622Y-121707511D01*
X127003620Y-121707509D01*
X127001150Y-121704851D01*
X126998396Y-121702499D01*
X126998392Y-121702495D01*
X126875667Y-121597678D01*
X126743992Y-121485217D01*
X126740989Y-121483199D01*
X126740981Y-121483193D01*
X126504934Y-121324577D01*
X126463294Y-121296596D01*
X126460085Y-121294940D01*
X126460077Y-121294935D01*
X126165997Y-121143150D01*
X126165998Y-121143150D01*
X126162777Y-121141488D01*
X125846423Y-121021948D01*
X125518427Y-120939561D01*
X125377153Y-120920962D01*
X125186739Y-120895893D01*
X125186731Y-120895892D01*
X125183135Y-120895419D01*
X125042630Y-120893212D01*
X124848634Y-120890164D01*
X124848630Y-120890164D01*
X124844992Y-120890107D01*
X124841377Y-120890468D01*
X124841372Y-120890468D01*
X124602438Y-120914317D01*
X124508478Y-120923695D01*
X124178056Y-120995739D01*
X124174629Y-120996912D01*
X124174623Y-120996914D01*
X123861535Y-121104108D01*
X123861530Y-121104110D01*
X123858104Y-121105283D01*
X123854836Y-121106842D01*
X123854828Y-121106845D01*
X123741896Y-121160711D01*
X123552863Y-121250875D01*
X123266379Y-121430587D01*
X123002449Y-121642034D01*
X122978359Y-121666378D01*
X122785039Y-121861733D01*
X122764571Y-121882416D01*
X122762330Y-121885274D01*
X122572182Y-122127780D01*
X122555899Y-122148546D01*
X122379198Y-122436896D01*
X122377671Y-122440186D01*
X122377666Y-122440195D01*
X122302914Y-122601235D01*
X122236809Y-122743645D01*
X122130622Y-123064727D01*
X122129886Y-123068282D01*
X122129885Y-123068285D01*
X122082839Y-123295459D01*
X122062042Y-123395885D01*
X122031979Y-123732732D01*
X111506000Y-123732732D01*
X111506000Y-117638460D01*
X125429477Y-117638460D01*
X125468947Y-117836894D01*
X125471441Y-117845887D01*
X125557578Y-118085797D01*
X125561378Y-118094332D01*
X125682031Y-118318877D01*
X125687042Y-118326744D01*
X125839572Y-118531006D01*
X125845677Y-118538030D01*
X126026726Y-118717505D01*
X126033808Y-118723554D01*
X126239394Y-118874296D01*
X126247293Y-118879232D01*
X126472901Y-118997930D01*
X126481450Y-119001647D01*
X126722113Y-119085690D01*
X126731122Y-119088104D01*
X126916202Y-119123243D01*
X126929261Y-119121959D01*
X126933771Y-119107782D01*
X127442000Y-119107782D01*
X127446171Y-119121987D01*
X127458934Y-119124043D01*
X127508270Y-119118640D01*
X127517447Y-119116939D01*
X127763960Y-119052037D01*
X127772780Y-119049000D01*
X128006997Y-118948373D01*
X128015269Y-118944066D01*
X128232040Y-118809925D01*
X128239578Y-118804448D01*
X128434145Y-118639735D01*
X128440790Y-118633205D01*
X128608874Y-118441543D01*
X128614486Y-118434095D01*
X128752391Y-118219697D01*
X128756838Y-118211506D01*
X128861536Y-117979085D01*
X128864731Y-117970307D01*
X128933921Y-117724977D01*
X128935782Y-117715830D01*
X128945814Y-117636970D01*
X128943526Y-117622708D01*
X128930506Y-117619000D01*
X127460115Y-117619000D01*
X127444876Y-117623475D01*
X127443671Y-117624865D01*
X127442000Y-117632548D01*
X127442000Y-119107782D01*
X126933771Y-119107782D01*
X126934000Y-119107063D01*
X126934000Y-117637115D01*
X126929525Y-117621876D01*
X126928135Y-117620671D01*
X126920452Y-117619000D01*
X125443721Y-117619000D01*
X125431320Y-117622641D01*
X125429477Y-117638460D01*
X111506000Y-117638460D01*
X111506000Y-117092974D01*
X125428317Y-117092974D01*
X125431077Y-117107703D01*
X125443255Y-117111000D01*
X126915885Y-117111000D01*
X126931124Y-117106525D01*
X126932329Y-117105135D01*
X126934000Y-117097452D01*
X126934000Y-117092885D01*
X127442000Y-117092885D01*
X127446475Y-117108124D01*
X127447865Y-117109329D01*
X127455548Y-117111000D01*
X128933995Y-117111000D01*
X128948872Y-117106632D01*
X128950481Y-117097646D01*
X128950368Y-117096894D01*
X128894109Y-116848262D01*
X128891385Y-116839351D01*
X128798990Y-116601758D01*
X128794979Y-116593349D01*
X128668481Y-116372025D01*
X128663270Y-116364299D01*
X128505446Y-116164100D01*
X128499153Y-116157232D01*
X128313477Y-115982566D01*
X128306222Y-115976691D01*
X128096776Y-115831392D01*
X128088741Y-115826659D01*
X127860106Y-115713909D01*
X127851473Y-115710421D01*
X127608681Y-115632703D01*
X127599620Y-115630527D01*
X127459878Y-115607769D01*
X127446285Y-115609465D01*
X127442000Y-115623572D01*
X127442000Y-117092885D01*
X126934000Y-117092885D01*
X126934000Y-115623209D01*
X126929982Y-115609526D01*
X126916290Y-115607504D01*
X126821930Y-115620346D01*
X126812803Y-115622287D01*
X126568084Y-115693616D01*
X126559331Y-115696888D01*
X126327837Y-115803608D01*
X126319682Y-115808128D01*
X126106500Y-115947896D01*
X126099095Y-115953579D01*
X125908919Y-116123317D01*
X125902434Y-116130033D01*
X125739433Y-116326020D01*
X125734018Y-116333612D01*
X125601776Y-116551540D01*
X125597538Y-116559857D01*
X125498961Y-116794935D01*
X125496000Y-116803785D01*
X125433255Y-117050849D01*
X125431633Y-117060046D01*
X125428317Y-117092974D01*
X111506000Y-117092974D01*
X111506000Y-90450715D01*
X114665500Y-90450715D01*
X119330500Y-90450715D01*
X119330500Y-78279286D01*
X114665500Y-78279286D01*
X114665500Y-90450715D01*
X111506000Y-90450715D01*
X111506000Y-75472732D01*
X123301979Y-75472732D01*
X123310832Y-75810801D01*
X123358483Y-76145613D01*
X123444300Y-76472728D01*
X123567146Y-76787812D01*
X123568843Y-76791017D01*
X123722314Y-77080873D01*
X123725393Y-77086689D01*
X123727443Y-77089672D01*
X123727445Y-77089675D01*
X123914886Y-77362404D01*
X123914892Y-77362411D01*
X123916943Y-77365396D01*
X124139258Y-77620240D01*
X124389390Y-77847843D01*
X124664025Y-78045188D01*
X124959522Y-78209659D01*
X125271964Y-78339077D01*
X125275458Y-78340072D01*
X125275460Y-78340073D01*
X125593710Y-78430729D01*
X125593715Y-78430730D01*
X125597211Y-78431726D01*
X125788754Y-78463092D01*
X125927370Y-78485792D01*
X125927377Y-78485793D01*
X125930951Y-78486378D01*
X125990197Y-78489172D01*
X126265134Y-78502138D01*
X126265135Y-78502138D01*
X126268761Y-78502309D01*
X126276677Y-78501769D01*
X126602532Y-78479555D01*
X126602540Y-78479554D01*
X126606163Y-78479307D01*
X126609739Y-78478644D01*
X126609741Y-78478644D01*
X126935120Y-78418339D01*
X126935124Y-78418338D01*
X126938685Y-78417678D01*
X127198700Y-78337687D01*
X127258442Y-78319308D01*
X127261920Y-78318238D01*
X127350655Y-78279286D01*
X127568260Y-78183764D01*
X127568264Y-78183762D01*
X127571583Y-78182305D01*
X127863571Y-78011681D01*
X127866480Y-78009497D01*
X128131106Y-77810811D01*
X128131110Y-77810808D01*
X128134013Y-77808628D01*
X128379323Y-77575837D01*
X128498822Y-77432918D01*
X128532360Y-77392807D01*
X128591401Y-77353378D01*
X128662387Y-77352127D01*
X128703171Y-77371758D01*
X128742948Y-77400711D01*
X128773315Y-77422814D01*
X128787016Y-77432787D01*
X129031101Y-77561206D01*
X129291168Y-77653045D01*
X129390874Y-77672697D01*
X129557296Y-77705499D01*
X129557302Y-77705500D01*
X129561768Y-77706380D01*
X129566322Y-77706607D01*
X129566324Y-77706607D01*
X129832664Y-77719867D01*
X129832670Y-77719867D01*
X129837233Y-77720094D01*
X130111792Y-77693898D01*
X130116226Y-77692813D01*
X130116232Y-77692812D01*
X130375256Y-77629429D01*
X130379694Y-77628343D01*
X130635326Y-77524801D01*
X130639256Y-77522500D01*
X130639262Y-77522497D01*
X130869403Y-77387745D01*
X130869410Y-77387740D01*
X130873335Y-77385442D01*
X130876895Y-77382595D01*
X130983416Y-77297408D01*
X131049109Y-77270484D01*
X131118930Y-77283350D01*
X131136259Y-77293939D01*
X131194649Y-77336440D01*
X131313315Y-77422814D01*
X131327016Y-77432787D01*
X131571101Y-77561206D01*
X131831168Y-77653045D01*
X131930874Y-77672697D01*
X132097296Y-77705499D01*
X132097302Y-77705500D01*
X132101768Y-77706380D01*
X132106322Y-77706607D01*
X132106324Y-77706607D01*
X132372664Y-77719867D01*
X132372670Y-77719867D01*
X132377233Y-77720094D01*
X132651792Y-77693898D01*
X132656226Y-77692813D01*
X132656232Y-77692812D01*
X132915256Y-77629429D01*
X132919694Y-77628343D01*
X133175326Y-77524801D01*
X133179256Y-77522500D01*
X133179262Y-77522497D01*
X133409403Y-77387745D01*
X133409410Y-77387740D01*
X133413335Y-77385442D01*
X133416895Y-77382595D01*
X133523416Y-77297408D01*
X133589109Y-77270484D01*
X133658930Y-77283350D01*
X133676259Y-77293939D01*
X133734649Y-77336440D01*
X133853315Y-77422814D01*
X133867016Y-77432787D01*
X134111101Y-77561206D01*
X134371168Y-77653045D01*
X134470874Y-77672697D01*
X134637296Y-77705499D01*
X134637302Y-77705500D01*
X134641768Y-77706380D01*
X134646322Y-77706607D01*
X134646324Y-77706607D01*
X134912664Y-77719867D01*
X134912670Y-77719867D01*
X134917233Y-77720094D01*
X135191792Y-77693898D01*
X135196226Y-77692813D01*
X135196232Y-77692812D01*
X135455256Y-77629429D01*
X135459694Y-77628343D01*
X135715326Y-77524801D01*
X135719256Y-77522500D01*
X135719262Y-77522497D01*
X135949403Y-77387745D01*
X135949410Y-77387740D01*
X135953335Y-77385442D01*
X135956895Y-77382595D01*
X136165166Y-77216036D01*
X136165167Y-77216035D01*
X136168732Y-77213184D01*
X136336196Y-77033915D01*
X136397314Y-76997789D01*
X136468261Y-77000441D01*
X136508247Y-77022563D01*
X136546652Y-77054109D01*
X136554933Y-77059865D01*
X136755919Y-77176841D01*
X136765024Y-77181203D01*
X136982115Y-77264537D01*
X136991804Y-77267388D01*
X137142264Y-77298821D01*
X137156325Y-77297698D01*
X137160000Y-77287590D01*
X137160000Y-77285590D01*
X137668000Y-77285590D01*
X137672136Y-77299676D01*
X137685114Y-77301725D01*
X137702830Y-77299675D01*
X137712727Y-77297715D01*
X137936494Y-77234396D01*
X137945938Y-77230884D01*
X138156705Y-77132601D01*
X138165470Y-77127622D01*
X138329862Y-77015901D01*
X138397447Y-76994155D01*
X138466059Y-77012399D01*
X138500847Y-77043670D01*
X138524028Y-77074044D01*
X138524030Y-77074046D01*
X138526802Y-77077678D01*
X138530068Y-77080871D01*
X138530070Y-77080873D01*
X138720758Y-77267283D01*
X138720763Y-77267287D01*
X138724026Y-77270477D01*
X138727718Y-77273164D01*
X138727720Y-77273166D01*
X138933315Y-77422814D01*
X138947016Y-77432787D01*
X139191101Y-77561206D01*
X139451168Y-77653045D01*
X139550874Y-77672697D01*
X139717296Y-77705499D01*
X139717302Y-77705500D01*
X139721768Y-77706380D01*
X139726322Y-77706607D01*
X139726324Y-77706607D01*
X139992664Y-77719867D01*
X139992670Y-77719867D01*
X139997233Y-77720094D01*
X140271792Y-77693898D01*
X140276226Y-77692813D01*
X140276232Y-77692812D01*
X140535256Y-77629429D01*
X140539694Y-77628343D01*
X140795326Y-77524801D01*
X140799256Y-77522500D01*
X140799262Y-77522497D01*
X141029403Y-77387745D01*
X141029410Y-77387740D01*
X141033335Y-77385442D01*
X141036895Y-77382595D01*
X141143416Y-77297408D01*
X141209109Y-77270484D01*
X141278930Y-77283350D01*
X141296259Y-77293939D01*
X141354649Y-77336440D01*
X141473315Y-77422814D01*
X141487016Y-77432787D01*
X141731101Y-77561206D01*
X141991168Y-77653045D01*
X142090874Y-77672697D01*
X142257296Y-77705499D01*
X142257302Y-77705500D01*
X142261768Y-77706380D01*
X142266322Y-77706607D01*
X142266324Y-77706607D01*
X142532664Y-77719867D01*
X142532670Y-77719867D01*
X142537233Y-77720094D01*
X142811792Y-77693898D01*
X142816226Y-77692813D01*
X142816232Y-77692812D01*
X143075256Y-77629429D01*
X143079694Y-77628343D01*
X143335326Y-77524801D01*
X143339256Y-77522500D01*
X143339262Y-77522497D01*
X143569403Y-77387745D01*
X143569410Y-77387740D01*
X143573335Y-77385442D01*
X143576899Y-77382591D01*
X143576903Y-77382589D01*
X143628805Y-77341082D01*
X143694498Y-77314157D01*
X143764319Y-77327022D01*
X143816100Y-77375594D01*
X143833500Y-77439484D01*
X143833500Y-81362468D01*
X143813498Y-81430589D01*
X143759842Y-81477082D01*
X143689568Y-81487186D01*
X143648833Y-81473976D01*
X143414943Y-81350921D01*
X143414932Y-81350916D01*
X143410899Y-81348794D01*
X143150832Y-81256955D01*
X142998447Y-81226920D01*
X142884704Y-81204501D01*
X142884698Y-81204500D01*
X142880232Y-81203620D01*
X142875678Y-81203393D01*
X142875676Y-81203393D01*
X142609336Y-81190133D01*
X142609330Y-81190133D01*
X142604767Y-81189906D01*
X142330208Y-81216102D01*
X142325774Y-81217187D01*
X142325768Y-81217188D01*
X142124599Y-81266414D01*
X142062306Y-81281657D01*
X141806674Y-81385199D01*
X141802744Y-81387500D01*
X141802738Y-81387503D01*
X141572597Y-81522255D01*
X141572590Y-81522260D01*
X141568665Y-81524558D01*
X141565105Y-81527405D01*
X141375401Y-81679116D01*
X141353268Y-81696816D01*
X141350147Y-81700157D01*
X141194917Y-81866330D01*
X141164992Y-81898364D01*
X141007784Y-82124979D01*
X140884935Y-82371914D01*
X140799020Y-82633998D01*
X140798240Y-82638489D01*
X140798240Y-82638490D01*
X140765949Y-82824468D01*
X140751838Y-82905738D01*
X140751647Y-82909575D01*
X140747724Y-82988384D01*
X140747500Y-82992876D01*
X140747500Y-83705070D01*
X140747665Y-83707338D01*
X140747665Y-83707350D01*
X140752906Y-83779577D01*
X140762375Y-83910083D01*
X140763359Y-83914538D01*
X140763359Y-83914541D01*
X140820852Y-84174947D01*
X140821836Y-84179403D01*
X140919551Y-84437319D01*
X140921765Y-84441306D01*
X140921766Y-84441307D01*
X140977551Y-84541739D01*
X141053475Y-84678428D01*
X141220802Y-84897678D01*
X141224068Y-84900871D01*
X141224070Y-84900873D01*
X141414758Y-85087283D01*
X141414763Y-85087287D01*
X141418026Y-85090477D01*
X141421718Y-85093164D01*
X141421720Y-85093166D01*
X141572060Y-85202595D01*
X141641016Y-85252787D01*
X141885101Y-85381206D01*
X142145168Y-85473045D01*
X142244874Y-85492697D01*
X142411296Y-85525499D01*
X142411302Y-85525500D01*
X142415768Y-85526380D01*
X142420322Y-85526607D01*
X142420324Y-85526607D01*
X142686664Y-85539867D01*
X142686670Y-85539867D01*
X142691233Y-85540094D01*
X142965792Y-85513898D01*
X142970226Y-85512813D01*
X142970232Y-85512812D01*
X143229256Y-85449429D01*
X143233694Y-85448343D01*
X143489326Y-85344801D01*
X143493256Y-85342500D01*
X143493262Y-85342497D01*
X143723403Y-85207745D01*
X143723410Y-85207740D01*
X143727335Y-85205442D01*
X143837416Y-85117408D01*
X143903109Y-85090484D01*
X143972930Y-85103350D01*
X143990259Y-85113939D01*
X144048649Y-85156440D01*
X144112060Y-85202595D01*
X144181016Y-85252787D01*
X144425101Y-85381206D01*
X144685168Y-85473045D01*
X144784874Y-85492697D01*
X144951296Y-85525499D01*
X144951302Y-85525500D01*
X144955768Y-85526380D01*
X144960322Y-85526607D01*
X144960324Y-85526607D01*
X145226664Y-85539867D01*
X145226670Y-85539867D01*
X145231233Y-85540094D01*
X145505792Y-85513898D01*
X145510226Y-85512813D01*
X145510232Y-85512812D01*
X145769256Y-85449429D01*
X145773694Y-85448343D01*
X146029326Y-85344801D01*
X146033256Y-85342500D01*
X146033262Y-85342497D01*
X146263403Y-85207745D01*
X146263410Y-85207740D01*
X146267335Y-85205442D01*
X146377416Y-85117408D01*
X146443109Y-85090484D01*
X146512930Y-85103350D01*
X146530259Y-85113939D01*
X146588649Y-85156440D01*
X146652060Y-85202595D01*
X146721016Y-85252787D01*
X146965101Y-85381206D01*
X147225168Y-85473045D01*
X147324874Y-85492697D01*
X147491296Y-85525499D01*
X147491302Y-85525500D01*
X147495768Y-85526380D01*
X147500322Y-85526607D01*
X147500324Y-85526607D01*
X147766664Y-85539867D01*
X147766670Y-85539867D01*
X147771233Y-85540094D01*
X148045792Y-85513898D01*
X148050226Y-85512813D01*
X148050232Y-85512812D01*
X148309256Y-85449429D01*
X148313694Y-85448343D01*
X148569326Y-85344801D01*
X148573256Y-85342500D01*
X148573262Y-85342497D01*
X148803403Y-85207745D01*
X148803410Y-85207740D01*
X148807335Y-85205442D01*
X148921752Y-85113940D01*
X149019166Y-85036036D01*
X149019167Y-85036035D01*
X149022732Y-85033184D01*
X149190196Y-84853915D01*
X149251314Y-84817789D01*
X149322261Y-84820441D01*
X149362247Y-84842563D01*
X149400652Y-84874109D01*
X149408933Y-84879865D01*
X149609919Y-84996841D01*
X149619024Y-85001203D01*
X149836115Y-85084537D01*
X149845804Y-85087388D01*
X149996264Y-85118821D01*
X150010325Y-85117698D01*
X150014000Y-85107590D01*
X150014000Y-81624410D01*
X150009864Y-81610324D01*
X149996886Y-81608275D01*
X149979170Y-81610325D01*
X149969273Y-81612285D01*
X149745506Y-81675604D01*
X149736062Y-81679116D01*
X149525295Y-81777399D01*
X149516530Y-81782378D01*
X149352138Y-81894099D01*
X149284553Y-81915845D01*
X149215941Y-81897601D01*
X149181153Y-81866330D01*
X149157972Y-81835956D01*
X149157968Y-81835951D01*
X149155198Y-81832322D01*
X149104108Y-81782378D01*
X148966421Y-81647780D01*
X148931691Y-81585858D01*
X148928500Y-81557680D01*
X148928500Y-77547532D01*
X148948502Y-77479411D01*
X149002158Y-77432918D01*
X149072432Y-77422814D01*
X149113167Y-77436024D01*
X149347057Y-77559079D01*
X149347064Y-77559082D01*
X149351101Y-77561206D01*
X149611168Y-77653045D01*
X149710874Y-77672697D01*
X149877296Y-77705499D01*
X149877302Y-77705500D01*
X149881768Y-77706380D01*
X149886322Y-77706607D01*
X149886324Y-77706607D01*
X150152664Y-77719867D01*
X150152670Y-77719867D01*
X150157233Y-77720094D01*
X150431792Y-77693898D01*
X150436226Y-77692813D01*
X150436232Y-77692812D01*
X150695256Y-77629429D01*
X150699694Y-77628343D01*
X150955326Y-77524801D01*
X150959256Y-77522500D01*
X150959262Y-77522497D01*
X151189403Y-77387745D01*
X151189410Y-77387740D01*
X151193335Y-77385442D01*
X151196895Y-77382595D01*
X151303416Y-77297408D01*
X151369109Y-77270484D01*
X151438930Y-77283350D01*
X151456259Y-77293939D01*
X151514649Y-77336440D01*
X151633315Y-77422814D01*
X151647016Y-77432787D01*
X151891101Y-77561206D01*
X152151168Y-77653045D01*
X152250874Y-77672697D01*
X152417296Y-77705499D01*
X152417302Y-77705500D01*
X152421768Y-77706380D01*
X152426322Y-77706607D01*
X152426324Y-77706607D01*
X152692664Y-77719867D01*
X152692670Y-77719867D01*
X152697233Y-77720094D01*
X152971792Y-77693898D01*
X152976226Y-77692813D01*
X152976232Y-77692812D01*
X153235256Y-77629429D01*
X153239694Y-77628343D01*
X153495326Y-77524801D01*
X153499256Y-77522500D01*
X153499262Y-77522497D01*
X153729403Y-77387745D01*
X153729410Y-77387740D01*
X153733335Y-77385442D01*
X153736895Y-77382595D01*
X153945166Y-77216036D01*
X153945167Y-77216035D01*
X153948732Y-77213184D01*
X154097332Y-77054109D01*
X154133892Y-77014972D01*
X154133894Y-77014969D01*
X154137008Y-77011636D01*
X154294216Y-76785021D01*
X154417065Y-76538086D01*
X154502980Y-76276002D01*
X154525011Y-76149116D01*
X154549506Y-76008043D01*
X154549507Y-76008035D01*
X154550162Y-76004262D01*
X154554500Y-75917124D01*
X154554500Y-75244930D01*
X154552289Y-75214446D01*
X154539955Y-75044468D01*
X154539625Y-75039917D01*
X154498578Y-74853998D01*
X154481148Y-74775053D01*
X154481147Y-74775050D01*
X154480164Y-74770597D01*
X154382449Y-74512681D01*
X154303163Y-74369938D01*
X154250743Y-74275565D01*
X154250742Y-74275564D01*
X154248525Y-74271572D01*
X154094793Y-74070135D01*
X154083970Y-74055954D01*
X154083969Y-74055953D01*
X154081198Y-74052322D01*
X154077930Y-74049127D01*
X153887242Y-73862717D01*
X153887237Y-73862713D01*
X153883974Y-73859523D01*
X153880280Y-73856834D01*
X153664676Y-73699900D01*
X153664673Y-73699898D01*
X153660984Y-73697213D01*
X153416899Y-73568794D01*
X153156832Y-73476955D01*
X153057126Y-73457303D01*
X152890704Y-73424501D01*
X152890698Y-73424500D01*
X152886232Y-73423620D01*
X152881678Y-73423393D01*
X152881676Y-73423393D01*
X152615336Y-73410133D01*
X152615330Y-73410133D01*
X152610767Y-73409906D01*
X152336208Y-73436102D01*
X152331774Y-73437187D01*
X152331768Y-73437188D01*
X152072744Y-73500571D01*
X152068306Y-73501657D01*
X151812674Y-73605199D01*
X151808744Y-73607500D01*
X151808738Y-73607503D01*
X151578597Y-73742255D01*
X151578590Y-73742260D01*
X151574665Y-73744558D01*
X151571105Y-73747405D01*
X151464584Y-73832592D01*
X151398891Y-73859516D01*
X151329070Y-73846650D01*
X151311739Y-73836060D01*
X151306975Y-73832592D01*
X151189942Y-73747406D01*
X151124676Y-73699900D01*
X151124673Y-73699898D01*
X151120984Y-73697213D01*
X150876899Y-73568794D01*
X150616832Y-73476955D01*
X150517126Y-73457303D01*
X150350704Y-73424501D01*
X150350698Y-73424500D01*
X150346232Y-73423620D01*
X150341678Y-73423393D01*
X150341676Y-73423393D01*
X150075336Y-73410133D01*
X150075330Y-73410133D01*
X150070767Y-73409906D01*
X149796208Y-73436102D01*
X149791774Y-73437187D01*
X149791768Y-73437188D01*
X149532744Y-73500571D01*
X149528306Y-73501657D01*
X149272674Y-73605199D01*
X149268744Y-73607500D01*
X149268738Y-73607503D01*
X149038597Y-73742255D01*
X149038590Y-73742260D01*
X149034665Y-73744558D01*
X149031105Y-73747405D01*
X148924584Y-73832592D01*
X148858891Y-73859516D01*
X148789070Y-73846650D01*
X148771739Y-73836060D01*
X148766975Y-73832592D01*
X148649942Y-73747406D01*
X148584676Y-73699900D01*
X148584673Y-73699898D01*
X148580984Y-73697213D01*
X148336899Y-73568794D01*
X148076832Y-73476955D01*
X147977126Y-73457303D01*
X147810704Y-73424501D01*
X147810698Y-73424500D01*
X147806232Y-73423620D01*
X147801678Y-73423393D01*
X147801676Y-73423393D01*
X147535336Y-73410133D01*
X147535330Y-73410133D01*
X147530767Y-73409906D01*
X147256208Y-73436102D01*
X147251774Y-73437187D01*
X147251768Y-73437188D01*
X146992744Y-73500571D01*
X146988306Y-73501657D01*
X146732674Y-73605199D01*
X146728744Y-73607500D01*
X146728738Y-73607503D01*
X146498597Y-73742255D01*
X146498590Y-73742260D01*
X146494665Y-73744558D01*
X146491105Y-73747405D01*
X146384584Y-73832592D01*
X146318891Y-73859516D01*
X146249070Y-73846650D01*
X146231739Y-73836060D01*
X146226975Y-73832592D01*
X146109942Y-73747406D01*
X146044676Y-73699900D01*
X146044673Y-73699898D01*
X146040984Y-73697213D01*
X145796899Y-73568794D01*
X145536832Y-73476955D01*
X145437126Y-73457303D01*
X145270704Y-73424501D01*
X145270698Y-73424500D01*
X145266232Y-73423620D01*
X145261678Y-73423393D01*
X145261676Y-73423393D01*
X144995336Y-73410133D01*
X144995330Y-73410133D01*
X144990767Y-73409906D01*
X144716208Y-73436102D01*
X144711774Y-73437187D01*
X144711768Y-73437188D01*
X144452744Y-73500571D01*
X144448306Y-73501657D01*
X144192674Y-73605199D01*
X144188744Y-73607500D01*
X144188738Y-73607503D01*
X143958597Y-73742255D01*
X143958590Y-73742260D01*
X143954665Y-73744558D01*
X143951105Y-73747405D01*
X143844584Y-73832592D01*
X143778891Y-73859516D01*
X143709070Y-73846650D01*
X143691739Y-73836060D01*
X143686975Y-73832592D01*
X143569942Y-73747406D01*
X143504676Y-73699900D01*
X143504673Y-73699898D01*
X143500984Y-73697213D01*
X143256899Y-73568794D01*
X142996832Y-73476955D01*
X142897126Y-73457303D01*
X142730704Y-73424501D01*
X142730698Y-73424500D01*
X142726232Y-73423620D01*
X142721678Y-73423393D01*
X142721676Y-73423393D01*
X142455336Y-73410133D01*
X142455330Y-73410133D01*
X142450767Y-73409906D01*
X142176208Y-73436102D01*
X142171774Y-73437187D01*
X142171768Y-73437188D01*
X141912744Y-73500571D01*
X141908306Y-73501657D01*
X141652674Y-73605199D01*
X141648744Y-73607500D01*
X141648738Y-73607503D01*
X141418597Y-73742255D01*
X141418590Y-73742260D01*
X141414665Y-73744558D01*
X141411105Y-73747405D01*
X141304584Y-73832592D01*
X141238891Y-73859516D01*
X141169070Y-73846650D01*
X141151739Y-73836060D01*
X141146975Y-73832592D01*
X141029942Y-73747406D01*
X140964676Y-73699900D01*
X140964673Y-73699898D01*
X140960984Y-73697213D01*
X140716899Y-73568794D01*
X140456832Y-73476955D01*
X140357126Y-73457303D01*
X140190704Y-73424501D01*
X140190698Y-73424500D01*
X140186232Y-73423620D01*
X140181678Y-73423393D01*
X140181676Y-73423393D01*
X139915336Y-73410133D01*
X139915330Y-73410133D01*
X139910767Y-73409906D01*
X139636208Y-73436102D01*
X139631774Y-73437187D01*
X139631768Y-73437188D01*
X139372744Y-73500571D01*
X139368306Y-73501657D01*
X139112674Y-73605199D01*
X139108744Y-73607500D01*
X139108738Y-73607503D01*
X138878597Y-73742255D01*
X138878590Y-73742260D01*
X138874665Y-73744558D01*
X138871105Y-73747405D01*
X138681401Y-73899116D01*
X138659268Y-73916816D01*
X138656147Y-73920157D01*
X138491804Y-74096085D01*
X138430686Y-74132211D01*
X138359739Y-74129559D01*
X138319753Y-74107437D01*
X138281348Y-74075891D01*
X138273067Y-74070135D01*
X138072081Y-73953159D01*
X138062976Y-73948797D01*
X137845885Y-73865463D01*
X137836196Y-73862612D01*
X137685736Y-73831179D01*
X137671675Y-73832302D01*
X137668000Y-73842410D01*
X137668000Y-77285590D01*
X137160000Y-77285590D01*
X137160000Y-73844410D01*
X137155864Y-73830324D01*
X137142886Y-73828275D01*
X137125170Y-73830325D01*
X137115273Y-73832285D01*
X136891506Y-73895604D01*
X136882062Y-73899116D01*
X136671295Y-73997399D01*
X136662530Y-74002378D01*
X136498138Y-74114099D01*
X136430553Y-74135845D01*
X136361941Y-74117601D01*
X136327153Y-74086330D01*
X136303972Y-74055956D01*
X136303968Y-74055951D01*
X136301198Y-74052322D01*
X136297930Y-74049127D01*
X136107242Y-73862717D01*
X136107237Y-73862713D01*
X136103974Y-73859523D01*
X136100280Y-73856834D01*
X135884676Y-73699900D01*
X135884673Y-73699898D01*
X135880984Y-73697213D01*
X135636899Y-73568794D01*
X135376832Y-73476955D01*
X135277126Y-73457303D01*
X135110704Y-73424501D01*
X135110698Y-73424500D01*
X135106232Y-73423620D01*
X135101678Y-73423393D01*
X135101676Y-73423393D01*
X134835336Y-73410133D01*
X134835330Y-73410133D01*
X134830767Y-73409906D01*
X134556208Y-73436102D01*
X134551774Y-73437187D01*
X134551768Y-73437188D01*
X134292744Y-73500571D01*
X134288306Y-73501657D01*
X134032674Y-73605199D01*
X134028744Y-73607500D01*
X134028738Y-73607503D01*
X133798597Y-73742255D01*
X133798590Y-73742260D01*
X133794665Y-73744558D01*
X133791105Y-73747405D01*
X133684584Y-73832592D01*
X133618891Y-73859516D01*
X133549070Y-73846650D01*
X133531739Y-73836060D01*
X133526975Y-73832592D01*
X133409942Y-73747406D01*
X133344676Y-73699900D01*
X133344673Y-73699898D01*
X133340984Y-73697213D01*
X133096899Y-73568794D01*
X132836832Y-73476955D01*
X132737126Y-73457303D01*
X132570704Y-73424501D01*
X132570698Y-73424500D01*
X132566232Y-73423620D01*
X132561678Y-73423393D01*
X132561676Y-73423393D01*
X132295336Y-73410133D01*
X132295330Y-73410133D01*
X132290767Y-73409906D01*
X132016208Y-73436102D01*
X132011774Y-73437187D01*
X132011768Y-73437188D01*
X131752744Y-73500571D01*
X131748306Y-73501657D01*
X131492674Y-73605199D01*
X131488744Y-73607500D01*
X131488738Y-73607503D01*
X131258597Y-73742255D01*
X131258590Y-73742260D01*
X131254665Y-73744558D01*
X131251105Y-73747405D01*
X131144584Y-73832592D01*
X131078891Y-73859516D01*
X131009070Y-73846650D01*
X130991739Y-73836060D01*
X130986975Y-73832592D01*
X130869942Y-73747406D01*
X130804676Y-73699900D01*
X130804673Y-73699898D01*
X130800984Y-73697213D01*
X130556899Y-73568794D01*
X130296832Y-73476955D01*
X130197126Y-73457303D01*
X130030704Y-73424501D01*
X130030698Y-73424500D01*
X130026232Y-73423620D01*
X130021678Y-73423393D01*
X130021676Y-73423393D01*
X129755336Y-73410133D01*
X129755330Y-73410133D01*
X129750767Y-73409906D01*
X129476208Y-73436102D01*
X129471774Y-73437187D01*
X129471768Y-73437188D01*
X129212744Y-73500571D01*
X129208306Y-73501657D01*
X128952674Y-73605199D01*
X128948744Y-73607500D01*
X128948738Y-73607503D01*
X128718597Y-73742255D01*
X128718590Y-73742260D01*
X128714665Y-73744558D01*
X128711108Y-73747402D01*
X128711103Y-73747406D01*
X128706864Y-73750796D01*
X128641170Y-73777717D01*
X128571349Y-73764848D01*
X128526627Y-73726982D01*
X128503510Y-73695511D01*
X128503498Y-73695496D01*
X128501360Y-73692586D01*
X128384916Y-73567277D01*
X128273622Y-73447511D01*
X128273620Y-73447509D01*
X128271150Y-73444851D01*
X128268396Y-73442499D01*
X128268392Y-73442495D01*
X128173797Y-73361704D01*
X128013992Y-73225217D01*
X128010989Y-73223199D01*
X128010981Y-73223193D01*
X127836408Y-73105885D01*
X127733294Y-73036596D01*
X127730085Y-73034940D01*
X127730077Y-73034935D01*
X127435997Y-72883150D01*
X127435998Y-72883150D01*
X127432777Y-72881488D01*
X127116423Y-72761948D01*
X126788427Y-72679561D01*
X126647153Y-72660962D01*
X126456739Y-72635893D01*
X126456731Y-72635892D01*
X126453135Y-72635419D01*
X126312630Y-72633212D01*
X126118634Y-72630164D01*
X126118630Y-72630164D01*
X126114992Y-72630107D01*
X126111377Y-72630468D01*
X126111372Y-72630468D01*
X125872438Y-72654317D01*
X125778478Y-72663695D01*
X125448056Y-72735739D01*
X125444629Y-72736912D01*
X125444623Y-72736914D01*
X125131535Y-72844108D01*
X125131530Y-72844110D01*
X125128104Y-72845283D01*
X125124836Y-72846842D01*
X125124828Y-72846845D01*
X124969158Y-72921096D01*
X124822863Y-72990875D01*
X124536379Y-73170587D01*
X124272449Y-73382034D01*
X124269898Y-73384612D01*
X124085535Y-73570916D01*
X124034571Y-73622416D01*
X124032330Y-73625274D01*
X123858750Y-73846650D01*
X123825899Y-73888546D01*
X123649198Y-74176896D01*
X123647671Y-74180186D01*
X123647666Y-74180195D01*
X123559590Y-74369938D01*
X123506809Y-74483645D01*
X123400622Y-74804727D01*
X123332042Y-75135885D01*
X123301979Y-75472732D01*
X111506000Y-75472732D01*
X111506000Y-71999000D01*
X111526002Y-71930879D01*
X111579658Y-71884386D01*
X111632000Y-71873000D01*
X175114576Y-71873000D01*
X175182697Y-71893002D01*
G37*
%TD.AperFunction*%
%TD*%
M02*
